<svg width="111" height="92" viewBox="0 0 111 92" fill="none" xmlns="http://www.w3.org/2000/svg">
<path d="M68.6984 52.6308L79.8773 41.7452C80.2562 41.3761 80.3931 40.8236 80.2292 40.3208C80.0656 39.8175 79.6305 39.4506 79.1063 39.3747L63.6587 37.1338L56.749 23.1501C56.5148 22.6757 56.0312 22.3755 55.5018 22.3755C54.9723 22.3755 54.4885 22.6762 54.2545 23.1501L47.3474 37.1338L31.8972 39.3747C31.3733 39.4506 30.9379 39.8178 30.7743 40.3208C30.6104 40.8236 30.747 41.3761 31.1263 41.7452L42.3052 52.6308L39.6676 68.0002C39.5781 68.5213 39.7926 69.0483 40.221 69.359C40.6489 69.67 41.2165 69.7112 41.6859 69.4649L55.5023 62.2095L69.3188 69.4649C69.5222 69.5719 69.7445 69.6245 69.9657 69.6245C70.2542 69.6245 70.541 69.535 70.7833 69.359C71.2118 69.0486 71.4266 68.5213 71.3367 68.0002L68.6984 52.6308Z" fill="#70C174"/>
<path d="M110.903 48.1143C110.833 48.0565 110.731 48.0382 110.652 48.0648C110.555 48.0946 110.467 48.1204 110.383 48.1449L110.342 48.1568C110.135 48.2172 109.957 48.2688 109.78 48.3397C106.989 49.4476 104.792 51.3456 103.063 54.1419C102.635 54.8328 102.305 55.551 102.041 56.2672C102.473 53.8581 102.573 52.9195 102.65 50.2238C102.654 50.1107 102.654 49.9956 102.654 49.8814C102.654 49.5696 102.654 49.275 102.722 49.0062C102.803 48.6877 102.968 48.37 103.127 48.0626C103.172 47.9756 103.217 47.8886 103.254 47.8122C103.266 47.7972 103.308 47.7719 103.324 47.7694C104.122 47.6477 104.828 47.3091 105.482 46.7347C106.142 46.1529 106.684 45.4409 107.094 44.6176C108.567 41.6671 109.304 38.4058 109.286 34.9255C109.284 34.5898 109.245 34.263 109.201 33.9075C109.181 33.7482 109.161 33.5853 109.145 33.4166C109.135 33.3241 109.078 33.2418 108.996 33.2018C108.914 33.1623 108.816 33.1651 108.733 33.2149C108.683 33.246 108.641 33.2713 108.602 33.2938C108.527 33.3383 108.47 33.373 108.416 33.4119C107.16 34.3116 106.052 35.4317 105.122 36.7402C103.605 38.8789 102.723 41.2972 102.485 43.9575C102.462 43.661 102.438 43.3644 102.414 43.0679L102.406 42.9603C102.312 41.7977 102.216 40.5954 102.138 39.4131C102.118 39.1137 102.06 38.8224 102.005 38.5406C101.897 37.9989 101.796 37.4873 101.958 36.9511C101.995 36.8299 102.026 36.7079 102.058 36.5862C102.134 36.2846 102.505 35.8202 103.075 35.3124L103.096 35.2932C103.306 35.1154 104.385 34.1293 104.997 32.1787C105.619 30.1971 105.572 28.1265 105.537 26.6145L105.536 26.5742C105.491 24.4958 105.266 22.9297 104.808 21.4952C104.748 21.3118 104.678 21.1309 104.603 20.9408C104.565 20.8418 104.525 20.7395 104.484 20.6325C104.451 20.5419 104.371 20.4761 104.277 20.4605L104.231 20.4563C104.15 20.4563 104.074 20.4927 104.023 20.5556L103.577 21.0978C101.442 23.6998 100.392 26.7515 100.458 30.1684C100.469 30.7702 100.515 31.3875 100.594 32.0248C100.052 30.1534 99.415 28.3319 98.6911 26.5795C98.6761 26.5411 98.6663 26.4936 98.6652 26.4533L98.6602 26.2137C98.6527 25.868 98.6449 25.5103 98.6597 25.1584C98.6619 25.1 98.6997 24.9953 98.7785 24.8921C98.8903 24.7446 99.0144 24.6003 99.1429 24.4502C99.3619 24.1956 99.5881 23.9327 99.7673 23.6326C100.344 22.667 100.615 21.5264 100.62 20.0425C100.628 18.2957 100.358 16.4574 99.7703 14.257C99.4492 13.0566 98.9646 11.4971 98.062 10.0833C98.0008 9.98825 97.9324 9.89875 97.8595 9.80398C97.8267 9.76201 97.7922 9.71726 97.7571 9.66918C97.7059 9.60053 97.6352 9.56051 97.5212 9.56051C97.4302 9.56718 97.349 9.61888 97.3036 9.6992C96.1707 11.7417 95.6065 13.9238 95.5797 16.3702C95.5569 18.4099 95.8758 20.1651 96.2756 21.5522C95.2581 19.6954 94.1274 17.9013 92.9019 16.1995L92.8738 16.1609C92.8459 16.1239 92.8343 16.1058 92.8362 16.1186C92.7591 15.568 92.7057 15.1275 92.6687 14.744C92.6696 14.7381 92.6768 14.7059 92.7341 14.6103C92.8151 14.4724 92.9038 14.3373 92.9981 14.1945C93.1873 13.9071 93.3826 13.6097 93.5078 13.2768C93.8857 12.2718 93.9705 11.1319 93.7666 9.79342C93.3189 6.83092 92.0116 4.16332 89.7708 1.63774C89.5401 1.37843 89.2853 1.14913 89.0157 0.906774L88.9411 0.839236C88.8357 0.743905 88.7274 0.646351 88.6181 0.543238C88.5485 0.47709 88.4489 0.452354 88.3524 0.480703C88.2611 0.509608 88.1907 0.585205 88.169 0.679147L88.1201 0.893712C88.0867 1.03601 88.0608 1.1483 88.0416 1.26114C87.74 3.05937 87.762 4.98545 88.1092 7.14999C88.4537 9.29675 89.14 11.1483 90.1931 12.7567C88.6139 10.8979 87.0779 9.33705 85.4725 7.95378C85.4653 7.94433 85.4547 7.9157 85.4539 7.90847C85.5794 6.8287 85.3128 5.81147 84.6384 4.79868C83.7528 3.46765 82.5223 2.4532 80.9809 1.78393C80.0586 1.38426 79.1029 1.03046 78.1673 0.683872C77.719 0.517668 77.2708 0.35202 76.8093 0.17442C76.3455 -0.00984963 76.1471 -0.0426459 76.0394 0.0568543C75.9009 0.185815 75.9343 0.295878 75.9946 0.49599L76.0141 0.561303C76.5797 2.46459 77.3304 3.96988 78.3094 5.16305C80.1067 7.35566 82.2087 8.46962 84.7322 8.56801C84.8207 8.57329 84.8908 8.59775 84.9194 8.61998C85.2747 8.88569 85.5362 9.09831 85.7674 9.30898C86.4986 9.97658 87.2186 10.6878 87.9231 11.4368C86.8753 10.7865 85.5947 10.493 84.1524 10.5658C83.363 10.6055 82.5796 10.7212 81.822 10.8329L81.793 10.8373C81.5691 10.8701 81.3462 10.9026 81.1239 10.9341C80.637 10.9999 80.1462 11.0861 79.7128 11.1617C79.5372 11.1931 79.1179 11.2884 79.0214 11.4916C78.988 11.5611 78.9908 11.6372 79.0286 11.7064C79.062 11.7667 79.0987 11.8234 79.1388 11.8751C80.39 13.4969 81.8172 14.565 83.5022 15.14C85.5565 15.8449 87.4434 15.7868 89.1389 14.9577C89.3982 14.8151 89.7109 14.7429 90.0682 14.7429C90.3378 14.7429 90.54 14.7854 90.6071 14.8007C90.7075 14.8173 90.8439 14.8735 90.8717 14.9096C91.9261 16.2946 92.9269 17.7737 93.8615 19.3276C93.0719 18.5605 92.0422 18.0433 90.6394 17.7065C89.4099 17.4138 88.1529 17.351 86.9376 17.2898L86.5306 17.2693C86.1494 17.2498 85.7683 17.2256 85.3757 17.2009L84.7174 17.1603C84.6323 17.1603 84.5513 17.2015 84.5018 17.2698C84.447 17.3435 84.4339 17.4391 84.4662 17.525C84.4926 17.5967 84.5408 17.7231 84.5655 17.7654C85.8473 19.9071 87.3525 21.3885 89.1665 22.2946C90.9398 23.1795 92.5421 23.4135 94.1583 23.0275C94.3453 22.9825 94.562 22.9586 94.786 22.9586C95.4735 22.9586 95.9528 23.1681 96.0536 23.3621C96.9428 25.1945 97.7362 27.0987 98.4207 29.0409C97.7029 28.0522 96.699 27.2493 95.4281 26.6487C94.1656 26.0534 92.8509 25.5092 91.5575 24.9736C91.0016 24.744 90.4435 24.5136 89.8879 24.2779C89.8053 24.2418 89.7076 24.2493 89.6305 24.3001C89.5549 24.3505 89.5098 24.4344 89.5098 24.5247C89.5098 24.6982 91.3544 29.8124 94.0334 31.8277C95.1262 32.6498 96.4723 33.4956 98.1697 33.5353C98.6777 33.5456 99.203 33.6173 99.5998 34.0678C99.6604 34.1395 99.7408 34.1954 99.8285 34.2252C99.964 34.2696 100.001 34.3524 100.068 34.6348C100.618 36.9406 101.018 39.3172 101.265 41.7305C101.19 41.4856 101.104 41.2382 101.004 40.9878C100.405 39.4689 99.3956 38.1398 97.8286 36.8049C97.0209 36.114 96.1751 35.445 95.3572 34.7977L95.3182 34.7671C94.9457 34.4722 94.574 34.1785 94.2034 33.8811C94.1269 33.8196 94.0523 33.7563 93.9658 33.6823L93.7346 33.4845C93.6536 33.4161 93.5332 33.4019 93.4386 33.4492C93.3415 33.4984 93.2833 33.6001 93.2908 33.7087C93.3022 33.8719 93.3114 34.0261 93.32 34.1743L93.3245 34.2435C93.3428 34.5484 93.3601 34.836 93.391 35.1201C93.6809 37.8858 94.5041 40.1949 95.9078 42.179C96.7767 43.4056 98.0231 44.9047 99.9667 45.6137C100.44 45.7872 100.783 46.0498 101.15 46.5212C101.497 46.9626 101.562 47.3658 101.554 47.8733C101.521 49.9993 101.369 52.1082 101.102 54.1735C101.039 53.5988 100.907 53.0071 100.703 52.3923C100.282 51.1193 99.6262 49.8817 98.6972 48.6088C97.8954 47.5065 97.061 46.4003 96.2542 45.33L96.2005 45.2585C95.8805 44.8347 95.5608 44.4103 95.2495 43.9951C95.1911 43.9097 95.1068 43.8792 95.0581 43.8622C94.9891 43.8286 94.9067 43.8252 94.8336 43.8564C94.7618 43.8869 94.7067 43.9473 94.6825 44.0212L94.673 44.0501C94.6597 44.089 94.6491 44.1235 94.6435 44.1579C94.0871 47.4726 94.4285 50.4423 95.6869 53.2377C96.3015 54.6046 97.1258 56.1521 98.5793 57.2655C99.2428 57.7739 99.7667 58.4871 100.054 59.2733C100.115 59.4426 100.113 59.516 100.106 59.5443C99.491 62.0896 98.6875 64.5446 97.7106 66.8681C97.9622 65.6436 97.9449 64.3573 97.6578 63.0246C97.2502 61.1358 96.5496 59.3053 95.9247 57.7378L95.7375 57.2683C95.4445 56.5337 95.1496 55.7933 94.845 55.026C94.8063 54.9279 94.7131 54.8609 94.5887 54.8548C94.4908 54.8548 94.4006 54.9106 94.3539 55.0012L94.2557 55.1858C94.2126 55.2667 94.1722 55.342 94.1377 55.4198C92.8807 58.2531 92.4562 61.1575 92.8765 64.0524C93.177 66.1225 93.6862 67.6047 94.5275 68.8587C94.9629 69.5069 95.3766 70.2289 95.4518 71.1169C95.4696 71.327 95.4612 71.4718 95.3675 71.6367C94.3063 73.493 93.1166 75.2448 91.8137 76.8724C91.8187 76.8635 91.8235 76.8546 91.8285 76.8457C92.7658 75.1345 92.7942 73.2842 92.6985 71.6997C92.6159 70.3415 92.4601 68.9852 92.3101 67.6739L92.3015 67.598C92.2411 67.0727 92.181 66.5477 92.1262 66.0216C92.0945 65.7233 92.0591 65.4251 92.0227 65.1225L91.9746 64.7128C91.964 64.6222 91.9086 64.5438 91.829 64.5043C91.681 64.4271 91.4415 64.5463 91.1827 64.852C89.4046 66.9529 88.3012 69.327 87.9028 71.9088C87.4896 74.5855 87.7136 76.8763 88.5883 78.9118C88.6117 78.966 88.6111 79.0767 88.6109 79.1136L88.5638 80.2848C88.5569 80.369 88.5124 80.4641 88.4756 80.4994C86.7 82.2076 84.7452 83.6926 82.6475 84.9285C83.6404 84.0319 84.3543 82.8621 84.817 81.3796C85.3298 79.7365 85.593 78.0263 85.8481 76.3682L85.8704 76.2206C85.9608 75.6381 86.0551 75.0566 86.1514 74.4624L86.2602 73.7906C86.2757 73.6928 86.2371 73.595 86.1611 73.5363C86.0857 73.4763 85.9767 73.4618 85.8898 73.4991L85.795 73.5383C85.6937 73.5797 85.6055 73.6167 85.5223 73.6592C81.5566 75.6378 78.946 80.2526 79.3149 84.6317C79.3728 85.3176 79.3099 85.9619 79.1224 86.6C79.1049 86.6581 79.0487 86.7212 79.0259 86.7318C77.1423 87.5253 75.3514 88.1042 73.5493 88.5017C73.4567 88.5231 73.3832 88.5892 73.3532 88.6784C73.3229 88.7682 73.3412 88.8657 73.403 88.9391C73.5989 89.1709 73.7694 89.4202 73.9096 89.6812C73.9672 89.7879 74.1044 89.8427 74.2071 89.816C75.6752 89.4814 77.105 89.0481 78.458 88.5272C78.5673 88.4833 78.6508 88.4625 78.729 88.4753C79.03 88.5153 79.348 88.577 79.7011 88.6645C79.774 88.6823 79.8344 88.7159 79.8355 88.7129C80.6067 90.2487 81.9322 91.2271 83.8889 91.7032C84.3146 91.8052 84.7536 91.8805 85.1937 91.9266C85.6545 91.9753 86.1683 92 86.7206 92C87.4857 92 88.0313 91.9528 88.038 91.9522C89.734 91.7626 91.1825 91.3813 92.4653 90.7863C92.9917 90.5425 93.5916 90.2143 94.0526 89.6281C94.1408 89.5158 94.126 89.3538 94.0189 89.2596C92.7157 88.1109 91.3889 87.2762 89.9619 86.7081C87.8477 85.8688 85.9218 85.6414 84.0341 86.0041C83.752 86.0589 83.4766 86.1278 83.2089 86.207C84.9748 85.1526 86.6655 83.9133 88.2622 82.5014C88.2928 82.4736 88.3432 82.4491 88.3824 82.4421C88.6437 82.3988 88.9906 82.3454 89.3456 82.3199C89.3785 82.3199 89.4202 82.3357 89.4249 82.3374C90.387 83.413 91.6265 83.9358 93.2143 83.9358C93.2953 83.9358 93.3765 83.9341 93.4575 83.9313C95.1838 83.8757 96.9194 83.4019 98.6168 82.5222C99.8504 81.8793 101.136 81.1309 102.179 80.0147C102.41 79.7665 102.617 79.4858 102.799 79.2381L102.817 79.214C102.898 79.1047 102.979 78.9947 103.063 78.886C103.108 78.8274 103.128 78.7517 103.116 78.6756C103.103 78.6022 103.06 78.5369 102.988 78.4897C102.969 78.4797 102.528 78.2431 102.125 78.0872C99.4253 77.0452 96.7001 76.9385 94.1004 77.7754C93.2494 78.0486 92.4484 78.4588 91.6685 79.0258C93.1108 77.351 94.4463 75.5149 95.6588 73.5394C95.6718 73.5185 95.7063 73.4621 95.7175 73.4518C95.8235 73.3843 95.932 73.3204 96.0402 73.2573C96.2341 73.1436 96.435 73.026 96.6236 72.886C96.7828 72.7673 96.8276 72.7642 96.9884 72.8676C97.216 73.0152 97.4806 73.0919 97.7112 73.1522C99.0606 73.4974 100.421 73.3254 101.925 72.6197C103.3 71.976 104.357 70.9585 105.294 69.9552C106.658 68.4916 107.549 67.1711 108.099 65.7992C108.214 65.5113 108.297 65.2136 108.382 64.9023C108.418 64.7717 108.454 64.6411 108.492 64.5127C108.534 64.3748 108.461 64.2289 108.325 64.1808L108.212 64.1722C107.655 64.1722 102.694 64.2536 99.7923 67.0663C99.161 67.6783 98.5951 68.3287 98.0785 69.0408C99.2264 66.6122 100.2 64.0527 100.984 61.3959L100.996 61.357C101.005 61.3245 101.02 61.2753 101.029 61.262L101.788 60.2208C101.816 60.1791 101.82 60.1791 101.864 60.1791C101.884 60.1791 101.906 60.1805 101.93 60.1819L102.093 60.1916C102.657 60.2267 102.99 60.2216 103.263 60.1788C104.344 60.0085 105.319 59.4648 106.245 58.5165C108.41 56.2986 109.9 53.5315 110.8 50.0579C110.897 49.6858 110.924 49.31 110.953 48.9114C110.966 48.7308 110.98 48.5446 111 48.3522C111.009 48.26 110.973 48.1718 110.903 48.1143Z" fill="#1C1D28"/>
<path d="M37.4519 88.4994C35.6516 88.1022 33.8609 87.5233 31.9768 86.7298C31.9543 86.7192 31.8984 86.6561 31.8808 86.5994C31.693 85.9599 31.6302 85.3157 31.688 84.6297C32.0569 80.2503 29.4464 75.6358 25.4815 73.6575C25.3972 73.6147 25.3092 73.5777 25.208 73.5363L25.1139 73.4974C25.0246 73.4593 24.9158 73.4751 24.8438 73.5329C24.7659 73.593 24.7272 73.6908 24.7431 73.7889L24.8516 74.4604C24.9478 75.0546 25.0422 75.6361 25.1326 76.2181L25.1554 76.3704C25.41 78.0243 25.6732 79.7347 26.1859 81.3779C26.6486 82.8604 27.3625 84.0302 28.3555 84.9265C26.2577 83.6908 24.3029 82.2058 22.5276 80.4979C22.4903 80.4621 22.4461 80.3671 22.4397 80.2887L22.3921 79.1166C22.3918 79.0749 22.3913 78.9643 22.4149 78.9096C23.2894 76.8745 23.5133 74.5838 23.1002 71.907C22.7018 69.3253 21.5983 66.9512 19.8202 64.8503C19.6121 64.6043 19.4285 64.4798 19.2743 64.4798C19.2368 64.4798 19.2028 64.4873 19.1761 64.5012C19.0943 64.5418 19.039 64.6205 19.0281 64.7113L18.9805 65.1202C18.9438 65.4237 18.9085 65.7216 18.8768 66.0201C18.822 66.546 18.7619 67.071 18.7015 67.5963L18.6929 67.6722C18.5426 68.9837 18.3868 70.34 18.3045 71.698C18.2088 73.2822 18.2371 75.1324 19.1745 76.844C19.1795 76.8526 19.1839 76.8617 19.1889 76.8704C17.886 75.2428 16.6966 73.4912 15.6355 71.6352C15.5417 71.4701 15.5337 71.3253 15.5512 71.1152C15.6266 70.2266 16.04 69.5046 16.4754 68.857C17.3165 67.603 17.8256 66.1207 18.1264 64.0507C18.5468 61.1557 18.1222 58.2516 16.8652 55.4184C16.8307 55.3403 16.7904 55.2649 16.7473 55.1841L16.649 54.999C16.602 54.9086 16.5016 54.8491 16.3956 54.8539C16.2899 54.8594 16.1967 54.9264 16.1583 55.0237C15.8533 55.7919 15.5584 56.532 15.2655 57.2666L15.0782 57.736C14.4533 59.3039 13.7525 61.1343 13.3452 63.0229C13.058 64.3556 13.0405 65.6419 13.2923 66.8664C12.3152 64.5432 11.512 62.0882 10.8968 59.5426C10.8899 59.5143 10.8876 59.4409 10.9486 59.2716C11.2363 58.4851 11.7601 57.7719 12.424 57.2635C13.8771 56.1502 14.7015 54.6026 15.3161 53.2357C16.5745 50.4403 16.9159 47.4706 16.3594 44.1562C16.3536 44.1215 16.343 44.087 16.3305 44.0495L16.3205 44.0195C16.2963 43.9453 16.2412 43.8852 16.1683 43.8538C16.0971 43.8241 16.0075 43.8296 15.9521 43.8569C15.8965 43.8772 15.8122 43.908 15.7573 43.9883C15.4424 44.4086 15.1227 44.8327 14.8028 45.2566L14.7491 45.328C13.9422 46.3983 13.1078 47.5045 12.306 48.6065C11.377 49.8797 10.721 51.1173 10.3 52.3903C10.0969 53.0051 9.96423 53.5968 9.90163 54.1715C9.63426 52.1062 9.48262 49.9975 9.44952 47.8713C9.44173 47.3638 9.50627 46.9606 9.85322 46.5189C10.2205 46.0481 10.5635 45.7852 11.0365 45.6118C12.9799 44.9025 14.2266 43.4036 15.0955 42.177C16.4991 40.1929 17.3223 37.8841 17.6123 35.1186C17.6431 34.834 17.6607 34.5461 17.6787 34.2415L17.6832 34.1723C17.6918 34.0241 17.701 33.8699 17.7127 33.7065C17.7199 33.5981 17.6618 33.4964 17.5647 33.4472C17.4706 33.3999 17.3502 33.4138 17.2684 33.483L17.0377 33.6803C16.9509 33.7543 16.8766 33.8176 16.7996 33.8793C16.4293 34.1765 16.0576 34.4705 15.685 34.7654L15.6461 34.796C14.8284 35.443 13.9826 36.112 13.1749 36.8029C11.6077 38.1381 10.5986 39.4672 9.999 40.9861C9.89996 41.2365 9.81315 41.4842 9.73859 41.7293C9.98509 39.3157 10.3855 36.9388 10.9352 34.6328C11.002 34.3507 11.0393 34.2679 11.1764 34.2229C11.2627 34.1937 11.3431 34.1375 11.4018 34.0681C11.8005 33.6153 12.3255 33.5436 12.8341 33.5333C14.5312 33.4936 15.8773 32.6478 16.9698 31.8257C19.6488 29.8101 21.4934 24.6961 21.4934 24.5227C21.4934 24.4324 21.4484 24.3482 21.3719 24.2973C21.2965 24.2476 21.1946 24.2406 21.1178 24.2748C20.5597 24.5113 20.0016 24.7417 19.4237 24.9805C18.1523 25.5072 16.8377 26.0514 15.5751 26.6464C14.3045 27.247 13.3004 28.0502 12.5826 29.0386C13.2667 27.0967 14.0599 25.1928 14.948 23.3632C15.0501 23.1658 15.5298 22.9563 16.2175 22.9563C16.4412 22.9563 16.658 22.9802 16.8452 23.0252C18.4611 23.4121 20.0634 23.1775 21.8368 22.2923C23.651 21.3862 25.1562 19.9049 26.4383 17.7623C26.4627 17.7209 26.5109 17.5944 26.5368 17.5235C26.5693 17.4368 26.5562 17.3412 26.5023 17.2687C26.4522 17.1997 26.372 17.1586 26.2699 17.1586C26.2691 17.1586 26.2686 17.1586 26.2677 17.1586L25.6273 17.1989C25.2347 17.2236 24.8535 17.2478 24.4724 17.2673L24.0653 17.2878C22.85 17.349 21.593 17.4118 20.3633 17.7045C18.9608 18.0413 17.9311 18.5585 17.1415 19.3256C18.076 17.7717 19.0768 16.2931 20.131 14.9082C20.1594 14.8715 20.2954 14.8153 20.407 14.7967C20.4626 14.7837 20.6652 14.7411 20.9345 14.7411C21.2917 14.7411 21.6044 14.8137 21.8696 14.9593C23.5542 15.7823 25.4461 15.8434 27.5002 15.1386C29.1851 14.5635 30.6121 13.4954 31.863 11.8742C31.9036 11.822 31.9404 11.765 31.9738 11.705C32.0119 11.6358 32.0144 11.5596 31.981 11.4901C31.8842 11.2873 31.4652 11.1919 31.2888 11.1602C30.8559 11.0846 30.3654 10.9985 29.879 10.9326C29.6562 10.9015 29.433 10.869 29.2094 10.8359L29.1807 10.8314C28.4228 10.7197 27.6393 10.6041 26.85 10.5643C25.4077 10.4907 24.1271 10.7847 23.079 11.4357C23.7838 10.6864 24.5038 9.9754 25.235 9.30753C25.4662 9.09686 25.7277 8.88452 26.0841 8.61798C26.1116 8.59685 26.1817 8.57212 26.2677 8.56712C28.7937 8.46845 30.8956 7.35449 32.693 5.16215C33.672 3.96871 34.4227 2.46342 34.9883 0.560132L35.0078 0.494817C35.0681 0.294705 35.1015 0.184643 34.9627 0.055682C34.8556 -0.0438182 34.6669 -0.0143564 34.1767 0.179641C33.7316 0.35057 33.2836 0.516497 32.8237 0.68687C31.8997 1.02901 30.9441 1.38281 30.0218 1.78248C28.4804 2.45175 27.2496 3.4662 26.364 4.79723C25.6896 5.81002 25.423 6.82753 25.5485 7.90258C25.5477 7.91453 25.5371 7.94315 25.5354 7.94649C23.9265 9.33421 22.3885 10.8965 20.8093 12.7559C21.8624 11.1475 22.5487 9.29558 22.8932 7.14882C23.2404 4.98455 23.2624 3.0582 22.9608 1.25997C22.9416 1.1474 22.9157 1.03484 22.8826 0.89393L22.8334 0.676863C22.8111 0.583756 22.741 0.508436 22.6489 0.479531C22.5568 0.452293 22.4536 0.476473 22.3849 0.541788C22.2747 0.645457 22.1667 0.74329 22.0613 0.838343L21.987 0.905325C21.7171 1.14824 21.4623 1.37753 21.2316 1.63685C18.9906 4.16243 17.6835 6.83003 17.2358 9.79225C17.0319 11.1311 17.1165 12.2709 17.4946 13.2759C17.6198 13.6088 17.8151 13.9062 18.0096 14.2014C18.0986 14.3362 18.1876 14.4715 18.2691 14.6105C18.3292 14.7103 18.3342 14.7361 18.334 14.7314C18.297 15.1275 18.2438 15.5688 18.172 16.0986C18.169 16.1052 18.159 16.1208 18.127 16.163L18.1011 16.1989C16.8755 17.9007 15.7448 19.6947 14.7274 21.5516C15.1275 20.1647 15.446 18.4093 15.4235 16.3695C15.3962 13.9229 14.8323 11.7408 13.6988 9.69775C13.654 9.61826 13.5728 9.56657 13.459 9.55878C13.3763 9.55878 13.2968 9.59964 13.2447 9.6694C13.2108 9.71665 13.1763 9.76112 13.1435 9.80336C13.0703 9.89786 13.0018 9.98736 12.9406 10.083C12.0381 11.4968 11.554 13.0557 11.2326 14.2561C10.6453 16.4576 10.3754 18.2959 10.3832 20.0416C10.3877 21.5255 10.6584 22.6661 11.2354 23.6314C11.4149 23.9318 11.6408 24.1948 11.8678 24.4593C11.9883 24.5997 12.1121 24.744 12.2242 24.8918C12.3027 24.9946 12.3405 25.0994 12.3427 25.1578C12.3575 25.5097 12.3497 25.8674 12.3422 26.2131L12.3369 26.4521C12.3361 26.4933 12.3266 26.5405 12.3124 26.5766C11.5879 28.3301 10.9511 30.1525 10.408 32.0241C10.4878 31.3868 10.5329 30.7698 10.5443 30.1678C10.61 26.7509 9.5608 23.6995 7.42518 21.0972L6.98002 20.5555C6.92855 20.4918 6.85232 20.4557 6.77108 20.4557L6.72656 20.4596C6.63141 20.4755 6.55128 20.5413 6.51818 20.6311C6.47756 20.7392 6.43777 20.8412 6.3991 20.9399C6.32453 21.1305 6.25414 21.3112 6.1946 21.4949C5.73637 22.9288 5.51157 24.4952 5.46594 26.573L5.46511 26.6136C5.43089 28.1253 5.38387 30.1962 6.00541 32.1778C6.61722 34.1287 7.69617 35.1145 7.90539 35.2915L7.92765 35.3115C8.49716 35.8193 8.86803 36.2837 8.94482 36.5853C8.97571 36.707 9.00714 36.8291 9.04387 36.9497C9.20635 37.4864 9.1048 37.9978 8.99518 38.55C8.94065 38.8288 8.88389 39.1167 8.86414 39.4122C8.78568 40.5945 8.68941 41.7968 8.59621 42.9594L8.58786 43.067C8.56394 43.3635 8.54001 43.6601 8.51636 43.9567C8.27876 41.2963 7.3968 38.878 5.87938 36.7393C4.95012 35.4308 3.84224 34.3113 2.5858 33.411C2.53154 33.3721 2.47451 33.3374 2.39828 33.2921C2.36127 33.2707 2.31843 33.2451 2.2664 33.2126C2.18794 33.1656 2.08722 33.1614 2.00626 33.2009C1.92335 33.2412 1.86632 33.3232 1.85686 33.416C1.83988 33.5842 1.82013 33.747 1.79926 33.916C1.75725 34.2621 1.71747 34.5889 1.7158 34.9247C1.69716 38.4049 2.43417 41.6662 3.90707 44.6167C4.31745 45.44 4.8597 46.1521 5.51936 46.734C6.17346 47.308 6.87931 47.6465 7.67585 47.7682C7.69338 47.7713 7.73512 47.7966 7.74152 47.8016C7.78464 47.888 7.82943 47.9747 7.87423 48.0617C8.03337 48.3688 8.1978 48.6865 8.2796 49.005C8.34776 49.2744 8.34776 49.5687 8.34776 49.8805C8.34776 49.9948 8.34776 50.1098 8.35138 50.2227C8.42789 52.9186 8.52833 53.8575 8.96012 56.2663C8.69665 55.5501 8.36584 54.8319 7.93877 54.141C6.20935 51.3447 4.01224 49.4467 1.22196 48.3391C1.04445 48.2677 0.866389 48.2163 0.659948 48.1562L0.618772 48.144C0.535027 48.1195 0.446274 48.0934 0.351401 48.0645C0.265709 48.0364 0.168053 48.0556 0.0982196 48.1134C0.0286643 48.171 -0.00778269 48.2591 0.00139861 48.3508C0.021987 48.542 0.0361763 48.7279 0.0492527 48.9094C0.0779095 49.3074 0.104897 49.6832 0.20144 50.0551C1.10176 53.529 2.59192 56.2958 4.75676 58.514C5.6824 59.4623 6.65784 60.0059 7.73873 60.1763C8.01139 60.2188 8.3447 60.2241 8.90893 60.1891L9.07141 60.1794C9.09618 60.178 9.11788 60.1766 9.13763 60.1766C9.18215 60.1766 9.18576 60.1766 9.21665 60.2222L9.97257 61.2591C9.98231 61.2727 9.9965 61.3219 10.0062 61.3558L10.0174 61.3931C10.802 64.0501 11.7754 66.6093 12.9234 69.0382C12.4067 68.3259 11.8406 67.6755 11.2095 67.0638C8.3077 64.2511 3.34645 64.1696 2.79029 64.1696L2.72101 64.1702L2.67733 64.1783C2.541 64.2266 2.46727 64.3723 2.50929 64.5093C2.54796 64.6385 2.58413 64.7691 2.62558 64.9226C2.70487 65.2108 2.78723 65.5084 2.90269 65.7964C3.45246 67.1688 4.3436 68.489 5.70772 69.9526C6.64504 70.9559 7.70173 71.9735 9.07587 72.6169C10.5808 73.3228 11.9396 73.4951 13.2909 73.1494C13.5207 73.0891 13.785 73.0126 14.0123 72.8653C14.1743 72.7617 14.2185 72.765 14.3777 72.8834C14.5663 73.0235 14.7669 73.1411 14.9616 73.255C15.0693 73.3181 15.1778 73.3817 15.2791 73.4457C15.2952 73.4593 15.3297 73.5157 15.3425 73.5366C16.555 75.5121 17.8908 77.3481 19.333 79.023C18.5529 78.456 17.7519 78.0457 16.9011 77.7725C14.3011 76.9357 11.576 77.0421 8.87694 78.0847C8.47407 78.2406 8.03253 78.4768 8.00304 78.4935C7.94128 78.5341 7.89871 78.5997 7.88536 78.675C7.87367 78.7489 7.89287 78.8245 7.93794 78.8823C8.02224 78.9918 8.10376 79.1019 8.18444 79.2111L8.20225 79.235C8.38448 79.4829 8.59093 79.7634 8.8224 80.0118C9.8649 81.1283 11.1506 81.8768 12.3848 82.5194C14.0819 83.399 15.8174 83.8729 17.5435 83.9285C17.6248 83.9313 17.706 83.9329 17.787 83.9329C19.3748 83.9329 20.6143 83.4101 21.5697 82.3409C21.5814 82.3326 21.6228 82.3167 21.6456 82.3165C22.0107 82.3426 22.3576 82.3957 22.6169 82.4388C22.6578 82.446 22.7082 82.4704 22.7396 82.4988C24.3357 83.9104 26.0262 85.1494 27.7921 86.2039C27.5244 86.1247 27.2487 86.0558 26.9666 86.0005C25.0794 85.6381 23.1536 85.8654 21.0388 86.7048C19.6121 87.2729 18.2853 88.1075 16.9824 89.2562C16.875 89.3504 16.8599 89.5124 16.9484 89.6247C17.4094 90.2109 18.0093 90.5391 18.5354 90.7826C19.8185 91.3782 21.267 91.7595 22.965 91.9491C22.97 91.9494 23.5156 91.9966 24.2807 91.9966C24.8329 91.9966 25.3468 91.9719 25.8073 91.9232C26.2474 91.8771 26.6864 91.8018 27.1124 91.6995C29.0688 91.2237 30.3946 90.2454 31.1541 88.7265C31.1677 88.7134 31.2262 88.6795 31.3002 88.6614C31.6532 88.5739 31.971 88.5122 32.2731 88.4719C32.3443 88.4605 32.4331 88.4796 32.5449 88.5247C33.896 89.0447 35.3258 89.478 36.7917 89.812C36.8123 89.8171 36.8337 89.8196 36.8551 89.8196C36.9536 89.8196 37.0443 89.7654 37.0922 89.677C37.2321 89.4168 37.4027 89.1673 37.5988 88.9352C37.6603 88.8621 37.6787 88.7648 37.6484 88.6748C37.6194 88.5875 37.546 88.5213 37.4519 88.4994Z" fill="#1C1D28"/>
</svg>
