<svg xmlns="http://www.w3.org/2000/svg" xmlns:xlink="http://www.w3.org/1999/xlink" width="2000" zoomAndPan="magnify" viewBox="0 0 1500 254.999984" height="340" preserveAspectRatio="xMidYMid meet" version="1.0"><defs><g/><clipPath id="8c9cb4f10e"><path d="M 0.367188 100 L 151 100 L 151 254 L 0.367188 254 Z M 0.367188 100 " clip-rule="nonzero"/></clipPath><clipPath id="73cca952d6"><path d="M 25 5.007812 L 250.71875 5.007812 L 250.71875 233 L 25 233 Z M 25 5.007812 " clip-rule="nonzero"/></clipPath><clipPath id="9a04863496"><rect x="0" width="1457" y="0" height="254"/></clipPath></defs><g transform="matrix(1, 0, 0, 1, 11, 1)"><g clip-path="url(#9a04863496)"><g fill="#1d2130" fill-opacity="1"><g transform="translate(269.063856, 148.559058)"><g><path d="M 102.59375 0 L 79.171875 0 L 33.578125 -74.796875 L 33.578125 0 L 10.15625 0 L 10.15625 -113.6875 L 33.578125 -113.6875 L 79.25 -38.734375 L 79.25 -113.6875 L 102.59375 -113.6875 Z M 102.59375 0 "/></g></g></g><g fill="#1d2130" fill-opacity="1"><g transform="translate(377.478356, 148.559058)"><g><path d="M 57.625 0 C 56.582031 -2.03125 55.828125 -4.554688 55.359375 -7.578125 C 49.890625 -1.484375 42.785156 1.5625 34.046875 1.5625 C 25.765625 1.5625 18.90625 -0.832031 13.46875 -5.625 C 8.03125 -10.414062 5.3125 -16.453125 5.3125 -23.734375 C 5.3125 -32.691406 8.628906 -39.5625 15.265625 -44.34375 C 21.898438 -49.132812 31.488281 -51.554688 44.03125 -51.609375 L 54.421875 -51.609375 L 54.421875 -56.453125 C 54.421875 -60.359375 53.414062 -63.476562 51.40625 -65.8125 C 49.40625 -68.15625 46.242188 -69.328125 41.921875 -69.328125 C 38.128906 -69.328125 35.148438 -68.414062 32.984375 -66.59375 C 30.828125 -64.78125 29.75 -62.285156 29.75 -59.109375 L 7.1875 -59.109375 C 7.1875 -64.003906 8.691406 -68.53125 11.703125 -72.6875 C 14.722656 -76.851562 18.992188 -80.117188 24.515625 -82.484375 C 30.035156 -84.859375 36.226562 -86.046875 43.09375 -86.046875 C 53.507812 -86.046875 61.773438 -83.425781 67.890625 -78.1875 C 74.003906 -72.957031 77.0625 -65.609375 77.0625 -56.140625 L 77.0625 -19.515625 C 77.113281 -11.503906 78.234375 -5.441406 80.421875 -1.328125 L 80.421875 0 Z M 38.96875 -15.6875 C 42.289062 -15.6875 45.359375 -16.425781 48.171875 -17.90625 C 50.984375 -19.394531 53.066406 -21.390625 54.421875 -23.890625 L 54.421875 -38.421875 L 45.984375 -38.421875 C 34.691406 -38.421875 28.679688 -34.515625 27.953125 -26.703125 L 27.875 -25.375 C 27.875 -22.5625 28.863281 -20.242188 30.84375 -18.421875 C 32.820312 -16.597656 35.53125 -15.6875 38.96875 -15.6875 Z M 38.96875 -15.6875 "/></g></g></g><g fill="#1d2130" fill-opacity="1"><g transform="translate(458.723839, 148.559058)"><g><path d="M 35.6875 -105.25 L 35.6875 -84.484375 L 50.125 -84.484375 L 50.125 -67.921875 L 35.6875 -67.921875 L 35.6875 -25.765625 C 35.6875 -22.640625 36.285156 -20.398438 37.484375 -19.046875 C 38.679688 -17.691406 40.96875 -17.015625 44.34375 -17.015625 C 46.84375 -17.015625 49.054688 -17.195312 50.984375 -17.5625 L 50.984375 -0.46875 C 46.554688 0.882812 42.003906 1.5625 37.328125 1.5625 C 21.492188 1.5625 13.425781 -6.425781 13.125 -22.40625 L 13.125 -67.921875 L 0.78125 -67.921875 L 0.78125 -84.484375 L 13.125 -84.484375 L 13.125 -105.25 Z M 35.6875 -105.25 "/></g></g></g><g fill="#1d2130" fill-opacity="1"><g transform="translate(508.272124, 148.559058)"><g><path d="M 59.265625 -8.59375 C 53.691406 -1.820312 45.988281 1.5625 36.15625 1.5625 C 27.09375 1.5625 20.179688 -1.035156 15.421875 -6.234375 C 10.660156 -11.441406 8.226562 -19.070312 8.125 -29.125 L 8.125 -84.484375 L 30.6875 -84.484375 L 30.6875 -29.90625 C 30.6875 -21.101562 34.691406 -16.703125 42.703125 -16.703125 C 50.359375 -16.703125 55.617188 -19.359375 58.484375 -24.671875 L 58.484375 -84.484375 L 81.125 -84.484375 L 81.125 0 L 59.890625 0 Z M 59.265625 -8.59375 "/></g></g></g><g fill="#1d2130" fill-opacity="1"><g transform="translate(593.26507, 148.559058)"><g><path d="M 56.140625 -63.328125 C 53.066406 -63.742188 50.359375 -63.953125 48.015625 -63.953125 C 39.484375 -63.953125 33.890625 -61.0625 31.234375 -55.28125 L 31.234375 0 L 8.671875 0 L 8.671875 -84.484375 L 29.984375 -84.484375 L 30.609375 -74.40625 C 35.140625 -82.164062 41.410156 -86.046875 49.421875 -86.046875 C 51.921875 -86.046875 54.265625 -85.707031 56.453125 -85.03125 Z M 56.140625 -63.328125 "/></g></g></g><g fill="#1d2130" fill-opacity="1"><g transform="translate(647.107322, 148.559058)"><g><path d="M 47.546875 1.5625 C 35.160156 1.5625 25.078125 -2.234375 17.296875 -9.828125 C 9.515625 -17.429688 5.625 -27.554688 5.625 -40.203125 L 5.625 -42.390625 C 5.625 -50.878906 7.257812 -58.46875 10.53125 -65.15625 C 13.8125 -71.84375 18.457031 -76.992188 24.46875 -80.609375 C 30.488281 -84.234375 37.347656 -86.046875 45.046875 -86.046875 C 56.609375 -86.046875 65.707031 -82.398438 72.34375 -75.109375 C 78.976562 -67.828125 82.296875 -57.492188 82.296875 -44.109375 L 82.296875 -34.90625 L 28.5 -34.90625 C 29.226562 -29.382812 31.425781 -24.957031 35.09375 -21.625 C 38.757812 -18.289062 43.40625 -16.625 49.03125 -16.625 C 57.726562 -16.625 64.519531 -19.773438 69.40625 -26.078125 L 80.5 -13.65625 C 77.113281 -8.875 72.53125 -5.140625 66.75 -2.453125 C 60.976562 0.222656 54.578125 1.5625 47.546875 1.5625 Z M 44.96875 -67.765625 C 40.5 -67.765625 36.867188 -66.253906 34.078125 -63.234375 C 31.296875 -60.222656 29.515625 -55.90625 28.734375 -50.28125 L 60.125 -50.28125 L 60.125 -52.078125 C 60.019531 -57.078125 58.664062 -60.941406 56.0625 -63.671875 C 53.457031 -66.398438 49.757812 -67.765625 44.96875 -67.765625 Z M 44.96875 -67.765625 "/></g></g></g><g fill="#1d2130" fill-opacity="1"><g transform="translate(729.055478, 148.559058)"><g/></g></g><g fill="#1d2130" fill-opacity="1"><g transform="translate(764.39468, 148.559058)"><g><path d="M 100.09375 -14.359375 C 95.875 -9.316406 89.910156 -5.398438 82.203125 -2.609375 C 74.503906 0.171875 65.972656 1.5625 56.609375 1.5625 C 46.765625 1.5625 38.132812 -0.582031 30.71875 -4.875 C 23.300781 -9.175781 17.578125 -15.410156 13.546875 -23.578125 C 9.515625 -31.753906 7.445312 -41.359375 7.34375 -52.390625 L 7.34375 -60.125 C 7.34375 -71.46875 9.253906 -81.289062 13.078125 -89.59375 C 16.898438 -97.894531 22.414062 -104.242188 29.625 -108.640625 C 36.832031 -113.046875 45.28125 -115.25 54.96875 -115.25 C 68.445312 -115.25 78.984375 -112.03125 86.578125 -105.59375 C 94.179688 -99.164062 98.6875 -89.8125 100.09375 -77.53125 L 77.296875 -77.53125 C 76.253906 -84.039062 73.953125 -88.800781 70.390625 -91.8125 C 66.828125 -94.832031 61.921875 -96.34375 55.671875 -96.34375 C 47.703125 -96.34375 41.632812 -93.347656 37.46875 -87.359375 C 33.3125 -81.378906 31.207031 -72.484375 31.15625 -60.671875 L 31.15625 -53.40625 C 31.15625 -41.488281 33.414062 -32.484375 37.9375 -26.390625 C 42.46875 -20.296875 49.109375 -17.25 57.859375 -17.25 C 66.648438 -17.25 72.921875 -19.125 76.671875 -22.875 L 76.671875 -42.46875 L 55.359375 -42.46875 L 55.359375 -59.734375 L 100.09375 -59.734375 Z M 100.09375 -14.359375 "/></g></g></g><g fill="#1d2130" fill-opacity="1"><g transform="translate(868.827487, 148.559058)"><g><path d="M 59.265625 -8.59375 C 53.691406 -1.820312 45.988281 1.5625 36.15625 1.5625 C 27.09375 1.5625 20.179688 -1.035156 15.421875 -6.234375 C 10.660156 -11.441406 8.226562 -19.070312 8.125 -29.125 L 8.125 -84.484375 L 30.6875 -84.484375 L 30.6875 -29.90625 C 30.6875 -21.101562 34.691406 -16.703125 42.703125 -16.703125 C 50.359375 -16.703125 55.617188 -19.359375 58.484375 -24.671875 L 58.484375 -84.484375 L 81.125 -84.484375 L 81.125 0 L 59.890625 0 Z M 59.265625 -8.59375 "/></g></g></g><g fill="#1d2130" fill-opacity="1"><g transform="translate(953.820459, 148.559058)"><g><path d="M 57.625 0 C 56.582031 -2.03125 55.828125 -4.554688 55.359375 -7.578125 C 49.890625 -1.484375 42.785156 1.5625 34.046875 1.5625 C 25.765625 1.5625 18.90625 -0.832031 13.46875 -5.625 C 8.03125 -10.414062 5.3125 -16.453125 5.3125 -23.734375 C 5.3125 -32.691406 8.628906 -39.5625 15.265625 -44.34375 C 21.898438 -49.132812 31.488281 -51.554688 44.03125 -51.609375 L 54.421875 -51.609375 L 54.421875 -56.453125 C 54.421875 -60.359375 53.414062 -63.476562 51.40625 -65.8125 C 49.40625 -68.15625 46.242188 -69.328125 41.921875 -69.328125 C 38.128906 -69.328125 35.148438 -68.414062 32.984375 -66.59375 C 30.828125 -64.78125 29.75 -62.285156 29.75 -59.109375 L 7.1875 -59.109375 C 7.1875 -64.003906 8.691406 -68.53125 11.703125 -72.6875 C 14.722656 -76.851562 18.992188 -80.117188 24.515625 -82.484375 C 30.035156 -84.859375 36.226562 -86.046875 43.09375 -86.046875 C 53.507812 -86.046875 61.773438 -83.425781 67.890625 -78.1875 C 74.003906 -72.957031 77.0625 -65.609375 77.0625 -56.140625 L 77.0625 -19.515625 C 77.113281 -11.503906 78.234375 -5.441406 80.421875 -1.328125 L 80.421875 0 Z M 38.96875 -15.6875 C 42.289062 -15.6875 45.359375 -16.425781 48.171875 -17.90625 C 50.984375 -19.394531 53.066406 -21.390625 54.421875 -23.890625 L 54.421875 -38.421875 L 45.984375 -38.421875 C 34.691406 -38.421875 28.679688 -34.515625 27.953125 -26.703125 L 27.875 -25.375 C 27.875 -22.5625 28.863281 -20.242188 30.84375 -18.421875 C 32.820312 -16.597656 35.53125 -15.6875 38.96875 -15.6875 Z M 38.96875 -15.6875 "/></g></g></g><g fill="#1d2130" fill-opacity="1"><g transform="translate(1035.065929, 148.559058)"><g><path d="M 56.140625 -63.328125 C 53.066406 -63.742188 50.359375 -63.953125 48.015625 -63.953125 C 39.484375 -63.953125 33.890625 -61.0625 31.234375 -55.28125 L 31.234375 0 L 8.671875 0 L 8.671875 -84.484375 L 29.984375 -84.484375 L 30.609375 -74.40625 C 35.140625 -82.164062 41.410156 -86.046875 49.421875 -86.046875 C 51.921875 -86.046875 54.265625 -85.707031 56.453125 -85.03125 Z M 56.140625 -63.328125 "/></g></g></g><g fill="#1d2130" fill-opacity="1"><g transform="translate(1088.908154, 148.559058)"><g><path d="M 5.15625 -42.859375 C 5.15625 -56.035156 8.109375 -66.523438 14.015625 -74.328125 C 19.921875 -82.140625 28.003906 -86.046875 38.265625 -86.046875 C 46.484375 -86.046875 53.273438 -82.972656 58.640625 -76.828125 L 58.640625 -119.9375 L 81.28125 -119.9375 L 81.28125 0 L 60.90625 0 L 59.8125 -8.984375 C 54.1875 -1.953125 46.953125 1.5625 38.109375 1.5625 C 28.160156 1.5625 20.179688 -2.351562 14.171875 -10.1875 C 8.160156 -18.019531 5.15625 -28.910156 5.15625 -42.859375 Z M 27.71875 -41.21875 C 27.71875 -33.3125 29.097656 -27.25 31.859375 -23.03125 C 34.617188 -18.8125 38.625 -16.703125 43.875 -16.703125 C 50.851562 -16.703125 55.773438 -19.644531 58.640625 -25.53125 L 58.640625 -58.875 C 55.828125 -64.75 50.957031 -67.6875 44.03125 -67.6875 C 33.15625 -67.6875 27.71875 -58.863281 27.71875 -41.21875 Z M 27.71875 -41.21875 "/></g></g></g><g fill="#1d2130" fill-opacity="1"><g transform="translate(1174.52565, 148.559058)"><g><path d="M 32.484375 0 L 9.84375 0 L 9.84375 -84.484375 L 32.484375 -84.484375 Z M 8.515625 -106.34375 C 8.515625 -109.726562 9.644531 -112.515625 11.90625 -114.703125 C 14.164062 -116.890625 17.25 -117.984375 21.15625 -117.984375 C 25.007812 -117.984375 28.082031 -116.890625 30.375 -114.703125 C 32.664062 -112.515625 33.8125 -109.726562 33.8125 -106.34375 C 33.8125 -102.90625 32.648438 -100.09375 30.328125 -97.90625 C 28.015625 -95.71875 24.957031 -94.625 21.15625 -94.625 C 17.351562 -94.625 14.296875 -95.71875 11.984375 -97.90625 C 9.671875 -100.09375 8.515625 -102.90625 8.515625 -106.34375 Z M 8.515625 -106.34375 "/></g></g></g><g fill="#1d2130" fill-opacity="1"><g transform="translate(1212.441263, 148.559058)"><g><path d="M 57.625 0 C 56.582031 -2.03125 55.828125 -4.554688 55.359375 -7.578125 C 49.890625 -1.484375 42.785156 1.5625 34.046875 1.5625 C 25.765625 1.5625 18.90625 -0.832031 13.46875 -5.625 C 8.03125 -10.414062 5.3125 -16.453125 5.3125 -23.734375 C 5.3125 -32.691406 8.628906 -39.5625 15.265625 -44.34375 C 21.898438 -49.132812 31.488281 -51.554688 44.03125 -51.609375 L 54.421875 -51.609375 L 54.421875 -56.453125 C 54.421875 -60.359375 53.414062 -63.476562 51.40625 -65.8125 C 49.40625 -68.15625 46.242188 -69.328125 41.921875 -69.328125 C 38.128906 -69.328125 35.148438 -68.414062 32.984375 -66.59375 C 30.828125 -64.78125 29.75 -62.285156 29.75 -59.109375 L 7.1875 -59.109375 C 7.1875 -64.003906 8.691406 -68.53125 11.703125 -72.6875 C 14.722656 -76.851562 18.992188 -80.117188 24.515625 -82.484375 C 30.035156 -84.859375 36.226562 -86.046875 43.09375 -86.046875 C 53.507812 -86.046875 61.773438 -83.425781 67.890625 -78.1875 C 74.003906 -72.957031 77.0625 -65.609375 77.0625 -56.140625 L 77.0625 -19.515625 C 77.113281 -11.503906 78.234375 -5.441406 80.421875 -1.328125 L 80.421875 0 Z M 38.96875 -15.6875 C 42.289062 -15.6875 45.359375 -16.425781 48.171875 -17.90625 C 50.984375 -19.394531 53.066406 -21.390625 54.421875 -23.890625 L 54.421875 -38.421875 L 45.984375 -38.421875 C 34.691406 -38.421875 28.679688 -34.515625 27.953125 -26.703125 L 27.875 -25.375 C 27.875 -22.5625 28.863281 -20.242188 30.84375 -18.421875 C 32.820312 -16.597656 35.53125 -15.6875 38.96875 -15.6875 Z M 38.96875 -15.6875 "/></g></g></g><g fill="#1d2130" fill-opacity="1"><g transform="translate(1293.686785, 148.559058)"><g><path d="M 29.4375 -84.484375 L 30.140625 -74.71875 C 36.179688 -82.269531 44.273438 -86.046875 54.421875 -86.046875 C 63.367188 -86.046875 70.03125 -83.414062 74.40625 -78.15625 C 78.78125 -72.894531 81.019531 -65.035156 81.125 -54.578125 L 81.125 0 L 58.5625 0 L 58.5625 -54.03125 C 58.5625 -58.820312 57.519531 -62.296875 55.4375 -64.453125 C 53.351562 -66.609375 49.890625 -67.6875 45.046875 -67.6875 C 38.703125 -67.6875 33.941406 -64.984375 30.765625 -59.578125 L 30.765625 0 L 8.203125 0 L 8.203125 -84.484375 Z M 29.4375 -84.484375 "/></g></g></g><g fill="#1d2130" fill-opacity="1"><g transform="translate(1378.757764, 148.559058)"><g><path d="M 54.421875 -23.34375 C 54.421875 -26.101562 53.050781 -28.273438 50.3125 -29.859375 C 47.582031 -31.453125 43.203125 -32.875 37.171875 -34.125 C 17.078125 -38.332031 7.03125 -46.867188 7.03125 -59.734375 C 7.03125 -67.222656 10.140625 -73.476562 16.359375 -78.5 C 22.578125 -83.53125 30.707031 -86.046875 40.75 -86.046875 C 51.476562 -86.046875 60.054688 -83.519531 66.484375 -78.46875 C 72.910156 -73.414062 76.125 -66.859375 76.125 -58.796875 L 53.5625 -58.796875 C 53.5625 -62.023438 52.519531 -64.691406 50.4375 -66.796875 C 48.351562 -68.898438 45.097656 -69.953125 40.671875 -69.953125 C 36.878906 -69.953125 33.941406 -69.09375 31.859375 -67.375 C 29.773438 -65.664062 28.734375 -63.484375 28.734375 -60.828125 C 28.734375 -58.328125 29.914062 -56.304688 32.28125 -54.765625 C 34.65625 -53.234375 38.648438 -51.90625 44.265625 -50.78125 C 49.890625 -49.664062 54.628906 -48.40625 58.484375 -47 C 70.398438 -42.625 76.359375 -35.050781 76.359375 -24.28125 C 76.359375 -16.582031 73.050781 -10.347656 66.4375 -5.578125 C 59.832031 -0.816406 51.296875 1.5625 40.828125 1.5625 C 33.753906 1.5625 27.46875 0.300781 21.96875 -2.21875 C 16.476562 -4.75 12.171875 -8.210938 9.046875 -12.609375 C 5.929688 -17.003906 4.375 -21.753906 4.375 -26.859375 L 25.765625 -26.859375 C 25.972656 -22.847656 27.457031 -19.773438 30.21875 -17.640625 C 32.976562 -15.503906 36.671875 -14.4375 41.296875 -14.4375 C 45.617188 -14.4375 48.882812 -15.253906 51.09375 -16.890625 C 53.3125 -18.535156 54.421875 -20.6875 54.421875 -23.34375 Z M 54.421875 -23.34375 "/></g></g></g><g fill="#525560" fill-opacity="1"><g transform="translate(274.069684, 236.341931)"><g><path d="M 47.0625 -24.859375 C 47.0625 -19.648438 46.1875 -15.101562 44.4375 -11.21875 C 42.6875 -7.34375 40.203125 -4.378906 36.984375 -2.328125 C 33.773438 -0.285156 30.03125 0.734375 25.75 0.734375 C 21.5625 0.734375 17.847656 -0.289062 14.609375 -2.34375 C 11.367188 -4.40625 8.851562 -7.34375 7.0625 -11.15625 C 5.269531 -14.96875 4.351562 -19.378906 4.3125 -24.390625 L 4.3125 -28.21875 C 4.3125 -33.332031 5.195312 -37.847656 6.96875 -41.765625 C 8.75 -45.691406 11.265625 -48.691406 14.515625 -50.765625 C 17.765625 -52.847656 21.484375 -53.890625 25.671875 -53.890625 C 29.929688 -53.890625 33.6875 -52.859375 36.9375 -50.796875 C 40.1875 -48.742188 42.6875 -45.765625 44.4375 -41.859375 C 46.1875 -37.953125 47.0625 -33.40625 47.0625 -28.21875 Z M 40.09375 -28.296875 C 40.09375 -34.597656 38.828125 -39.4375 36.296875 -42.8125 C 33.765625 -46.1875 30.222656 -47.875 25.671875 -47.875 C 21.242188 -47.875 17.753906 -46.1875 15.203125 -42.8125 C 12.660156 -39.4375 11.351562 -34.753906 11.28125 -28.765625 L 11.28125 -24.859375 C 11.28125 -18.753906 12.5625 -13.953125 15.125 -10.453125 C 17.695312 -6.960938 21.238281 -5.21875 25.75 -5.21875 C 30.269531 -5.21875 33.769531 -6.863281 36.25 -10.15625 C 38.738281 -13.457031 40.019531 -18.191406 40.09375 -24.359375 Z M 40.09375 -28.296875 "/></g></g></g><g fill="#525560" fill-opacity="1"><g transform="translate(330.038472, 236.341931)"><g><path d="M 25.671875 -21.5 L 13.1875 -21.5 L 13.1875 0 L 6.140625 0 L 6.140625 -53.171875 L 23.734375 -53.171875 C 29.722656 -53.171875 34.328125 -51.804688 37.546875 -49.078125 C 40.773438 -46.347656 42.390625 -42.378906 42.390625 -37.171875 C 42.390625 -33.859375 41.492188 -30.972656 39.703125 -28.515625 C 37.921875 -26.054688 35.429688 -24.21875 32.234375 -23 L 44.734375 -0.4375 L 44.734375 0 L 37.203125 0 Z M 13.1875 -27.234375 L 23.953125 -27.234375 C 27.429688 -27.234375 30.195312 -28.132812 32.25 -29.9375 C 34.3125 -31.738281 35.34375 -34.148438 35.34375 -37.171875 C 35.34375 -40.453125 34.363281 -42.96875 32.40625 -44.71875 C 30.445312 -46.476562 27.617188 -47.367188 23.921875 -47.390625 L 13.1875 -47.390625 Z M 13.1875 -27.234375 "/></g></g></g><g fill="#525560" fill-opacity="1"><g transform="translate(380.640177, 236.341931)"><g><path d="M 45.421875 -6.96875 C 43.617188 -4.394531 41.101562 -2.46875 37.875 -1.1875 C 34.65625 0.09375 30.90625 0.734375 26.625 0.734375 C 22.289062 0.734375 18.441406 -0.28125 15.078125 -2.3125 C 11.722656 -4.351562 9.125 -7.242188 7.28125 -10.984375 C 5.445312 -14.734375 4.503906 -19.082031 4.453125 -24.03125 L 4.453125 -28.65625 C 4.453125 -36.664062 6.320312 -42.875 10.0625 -47.28125 C 13.800781 -51.6875 19.050781 -53.890625 25.8125 -53.890625 C 31.363281 -53.890625 35.832031 -52.472656 39.21875 -49.640625 C 42.601562 -46.804688 44.671875 -42.785156 45.421875 -37.578125 L 38.40625 -37.578125 C 37.09375 -44.609375 32.910156 -48.125 25.859375 -48.125 C 21.160156 -48.125 17.597656 -46.472656 15.171875 -43.171875 C 12.742188 -39.878906 11.519531 -35.101562 11.5 -28.84375 L 11.5 -24.5 C 11.5 -18.539062 12.863281 -13.800781 15.59375 -10.28125 C 18.320312 -6.757812 22.007812 -5 26.65625 -5 C 29.28125 -5 31.578125 -5.289062 33.546875 -5.875 C 35.523438 -6.457031 37.160156 -7.445312 38.453125 -8.84375 L 38.453125 -20.78125 L 26.140625 -20.78125 L 26.140625 -26.46875 L 45.421875 -26.46875 Z M 45.421875 -6.96875 "/></g></g></g><g fill="#525560" fill-opacity="1"><g transform="translate(436.134331, 236.341931)"><g><path d="M 35.53125 -13.875 L 13.25 -13.875 L 8.25 0 L 1.015625 0 L 21.328125 -53.171875 L 27.453125 -53.171875 L 47.796875 0 L 40.609375 0 Z M 15.375 -19.640625 L 33.453125 -19.640625 L 24.390625 -44.515625 Z M 15.375 -19.640625 "/></g></g></g><g fill="#525560" fill-opacity="1"><g transform="translate(489.474339, 236.341931)"><g><path d="M 47.03125 0 L 39.984375 0 L 13.21875 -40.96875 L 13.21875 0 L 6.171875 0 L 6.171875 -53.171875 L 13.21875 -53.171875 L 40.0625 -12.015625 L 40.0625 -53.171875 L 47.03125 -53.171875 Z M 47.03125 0 "/></g></g></g><g fill="#525560" fill-opacity="1"><g transform="translate(547.34169, 236.341931)"><g><path d="M 13.6875 0 L 6.6875 0 L 6.6875 -53.171875 L 13.6875 -53.171875 Z M 13.6875 0 "/></g></g></g><g fill="#525560" fill-opacity="1"><g transform="translate(572.239796, 236.341931)"><g><path d="M 11.421875 -5.734375 L 41.84375 -5.734375 L 41.84375 0 L 3.140625 0 L 3.140625 -5.265625 L 32.28125 -47.390625 L 3.609375 -47.390625 L 3.609375 -53.171875 L 40.671875 -53.171875 L 40.671875 -48.015625 Z M 11.421875 -5.734375 "/></g></g></g><g fill="#525560" fill-opacity="1"><g transform="translate(621.563616, 236.341931)"><g><path d="M 35.53125 -13.875 L 13.25 -13.875 L 8.25 0 L 1.015625 0 L 21.328125 -53.171875 L 27.453125 -53.171875 L 47.796875 0 L 40.609375 0 Z M 15.375 -19.640625 L 33.453125 -19.640625 L 24.390625 -44.515625 Z M 15.375 -19.640625 "/></g></g></g><g fill="#525560" fill-opacity="1"><g transform="translate(674.903613, 236.341931)"><g><path d="M 42.90625 -47.390625 L 25.8125 -47.390625 L 25.8125 0 L 18.84375 0 L 18.84375 -47.390625 L 1.796875 -47.390625 L 1.796875 -53.171875 L 42.90625 -53.171875 Z M 42.90625 -47.390625 "/></g></g></g><g fill="#525560" fill-opacity="1"><g transform="translate(724.081363, 236.341931)"><g><path d="M 13.6875 0 L 6.6875 0 L 6.6875 -53.171875 L 13.6875 -53.171875 Z M 13.6875 0 "/></g></g></g><g fill="#525560" fill-opacity="1"><g transform="translate(748.97947, 236.341931)"><g><path d="M 47.0625 -24.859375 C 47.0625 -19.648438 46.1875 -15.101562 44.4375 -11.21875 C 42.6875 -7.34375 40.203125 -4.378906 36.984375 -2.328125 C 33.773438 -0.285156 30.03125 0.734375 25.75 0.734375 C 21.5625 0.734375 17.847656 -0.289062 14.609375 -2.34375 C 11.367188 -4.40625 8.851562 -7.34375 7.0625 -11.15625 C 5.269531 -14.96875 4.351562 -19.378906 4.3125 -24.390625 L 4.3125 -28.21875 C 4.3125 -33.332031 5.195312 -37.847656 6.96875 -41.765625 C 8.75 -45.691406 11.265625 -48.691406 14.515625 -50.765625 C 17.765625 -52.847656 21.484375 -53.890625 25.671875 -53.890625 C 29.929688 -53.890625 33.6875 -52.859375 36.9375 -50.796875 C 40.1875 -48.742188 42.6875 -45.765625 44.4375 -41.859375 C 46.1875 -37.953125 47.0625 -33.40625 47.0625 -28.21875 Z M 40.09375 -28.296875 C 40.09375 -34.597656 38.828125 -39.4375 36.296875 -42.8125 C 33.765625 -46.1875 30.222656 -47.875 25.671875 -47.875 C 21.242188 -47.875 17.753906 -46.1875 15.203125 -42.8125 C 12.660156 -39.4375 11.351562 -34.753906 11.28125 -28.765625 L 11.28125 -24.859375 C 11.28125 -18.753906 12.5625 -13.953125 15.125 -10.453125 C 17.695312 -6.960938 21.238281 -5.21875 25.75 -5.21875 C 30.269531 -5.21875 33.769531 -6.863281 36.25 -10.15625 C 38.738281 -13.457031 40.019531 -18.191406 40.09375 -24.359375 Z M 40.09375 -28.296875 "/></g></g></g><g fill="#525560" fill-opacity="1"><g transform="translate(804.948245, 236.341931)"><g><path d="M 47.03125 0 L 39.984375 0 L 13.21875 -40.96875 L 13.21875 0 L 6.171875 0 L 6.171875 -53.171875 L 13.21875 -53.171875 L 40.0625 -12.015625 L 40.0625 -53.171875 L 47.03125 -53.171875 Z M 47.03125 0 "/></g></g></g><path fill="#80cc28" d="M 142.582031 199.890625 C 142.582031 199.890625 156.625 148.503906 194.554688 133.882812 C 194.554688 133.882812 145.078125 158.449219 147.777344 232.714844 C 147.777344 232.714844 151.535156 207.871094 158.308594 197.957031 C 247 182.277344 228.3125 96.566406 228.3125 96.566406 C 132.101562 119.15625 142.582031 199.890625 142.582031 199.890625 " fill-opacity="1" fill-rule="nonzero"/><g clip-path="url(#8c9cb4f10e)"><path fill="#5aab34" d="M 136.355469 189.054688 C 136.355469 189.054688 101.65625 135.03125 52.757812 131.976562 C 52.757812 131.976562 146.925781 146.734375 150.5 288.960938 C 150.574219 291.921875 148.191406 294.355469 145.242188 294.355469 C 142.265625 294.355469 139.882812 291.882812 139.988281 288.898438 C 140.535156 273.417969 139.957031 228.027344 117.566406 192.535156 C 9.886719 206.671875 0.457031 101.300781 0.457031 101.300781 C 119.277344 92.382812 136.355469 189.054688 136.355469 189.054688 " fill-opacity="1" fill-rule="nonzero"/></g><path fill="#5aab34" d="M 71.660156 198.027344 C 61.394531 195.644531 52.5 191.9375 44.804688 187.40625 C 65.589844 215.539062 98.9375 233.777344 136.535156 233.777344 C 136.8125 233.777344 137.09375 233.773438 137.371094 233.769531 C 136.363281 229.613281 134.863281 225.457031 132.734375 221.367188 C 109.558594 220.511719 88.363281 211.898438 71.660156 198.027344 " fill-opacity="1" fill-rule="nonzero"/><g clip-path="url(#73cca952d6)"><path fill="#80cc28" d="M 136.535156 4.96875 C 82.269531 4.96875 36.863281 42.957031 25.296875 93.851562 C 29.578125 94.078125 33.703125 94.460938 37.683594 94.964844 C 48.589844 50.382812 88.707031 17.300781 136.535156 17.300781 C 192.753906 17.300781 238.324219 63.003906 238.324219 119.375 C 238.324219 168.4375 203.800781 209.40625 157.789062 219.207031 C 156.613281 223.867188 155.660156 228.550781 155.046875 232.273438 C 209.253906 223.40625 250.625 176.238281 250.625 119.375 C 250.625 56.191406 199.542969 4.96875 136.535156 4.96875 " fill-opacity="1" fill-rule="nonzero"/></g><path fill="#80cc28" d="M 150.5 138.175781 C 150.5 146.046875 144.132812 152.429688 136.28125 152.429688 C 128.433594 152.429688 122.0625 146.046875 122.0625 138.175781 C 122.0625 130.300781 128.433594 123.917969 136.28125 123.917969 C 144.132812 123.917969 150.5 130.300781 150.5 138.175781 " fill-opacity="1" fill-rule="nonzero"/></g></g></svg>