<svg xmlns="http://www.w3.org/2000/svg" xmlns:xlink="http://www.w3.org/1999/xlink" width="2000" zoomAndPan="magnify" viewBox="0 0 1500 254.999984" height="340" preserveAspectRatio="xMidYMid meet" version="1.0"><defs><g/><clipPath id="b69dba3ec0"><path d="M 266 0.199219 L 1445.359375 0.199219 L 1445.359375 187 L 266 187 Z M 266 0.199219 " clip-rule="nonzero"/></clipPath><clipPath id="9e6f7c83ac"><rect x="0" width="1180" y="0" height="187"/></clipPath><clipPath id="e89932f581"><rect x="0" width="585" y="0" height="89"/></clipPath><clipPath id="de213129fa"><path d="M 0.300781 99 L 150 99 L 150 254 L 0.300781 254 Z M 0.300781 99 " clip-rule="nonzero"/></clipPath><clipPath id="61782d66d6"><path d="M 25 4.960938 L 248.644531 4.960938 L 248.644531 231 L 25 231 Z M 25 4.960938 " clip-rule="nonzero"/></clipPath><clipPath id="abce6bb9cd"><rect x="0" width="1446" y="0" height="254"/></clipPath></defs><g transform="matrix(1, 0, 0, 1, 10, 1)"><g clip-path="url(#abce6bb9cd)"><g clip-path="url(#b69dba3ec0)"><g transform="matrix(1, 0, 0, 1, 266, 0.000000000000009326)"><g clip-path="url(#9e6f7c83ac)"><g fill="#ffffff" fill-opacity="1"><g transform="translate(0.835268, 147.743887)"><g><path d="M 101.78125 0 L 78.53125 0 L 33.3125 -74.203125 L 33.3125 0 L 10.0625 0 L 10.0625 -112.765625 L 33.3125 -112.765625 L 78.609375 -38.421875 L 78.609375 -112.765625 L 101.78125 -112.765625 Z M 101.78125 0 "/></g></g></g><g fill="#ffffff" fill-opacity="1"><g transform="translate(108.37973, 147.743887)"><g><path d="M 57.15625 0 C 56.125 -2.007812 55.378906 -4.515625 54.921875 -7.515625 C 49.492188 -1.472656 42.441406 1.546875 33.765625 1.546875 C 25.554688 1.546875 18.753906 -0.828125 13.359375 -5.578125 C 7.960938 -10.328125 5.265625 -16.316406 5.265625 -23.546875 C 5.265625 -32.429688 8.554688 -39.25 15.140625 -44 C 21.722656 -48.75 31.238281 -51.148438 43.6875 -51.203125 L 53.984375 -51.203125 L 53.984375 -56 C 53.984375 -59.875 52.988281 -62.972656 51 -65.296875 C 49.007812 -67.617188 45.875 -68.78125 41.59375 -68.78125 C 37.820312 -68.78125 34.863281 -67.875 32.71875 -66.0625 C 30.582031 -64.257812 29.515625 -61.78125 29.515625 -58.625 L 7.125 -58.625 C 7.125 -63.476562 8.617188 -67.972656 11.609375 -72.109375 C 14.609375 -76.242188 18.84375 -79.484375 24.3125 -81.828125 C 29.789062 -84.179688 35.9375 -85.359375 42.75 -85.359375 C 53.082031 -85.359375 61.28125 -82.757812 67.34375 -77.5625 C 73.414062 -72.375 76.453125 -65.082031 76.453125 -55.6875 L 76.453125 -19.359375 C 76.503906 -11.410156 77.613281 -5.394531 79.78125 -1.3125 L 79.78125 0 Z M 38.65625 -15.5625 C 41.957031 -15.5625 45 -16.296875 47.78125 -17.765625 C 50.570312 -19.242188 52.640625 -21.222656 53.984375 -23.703125 L 53.984375 -38.109375 L 45.625 -38.109375 C 34.414062 -38.109375 28.453125 -34.234375 27.734375 -26.484375 L 27.65625 -25.171875 C 27.65625 -22.378906 28.632812 -20.078125 30.59375 -18.265625 C 32.550781 -16.460938 35.238281 -15.5625 38.65625 -15.5625 Z M 38.65625 -15.5625 "/></g></g></g><g fill="#ffffff" fill-opacity="1"><g transform="translate(188.973209, 147.743887)"><g><path d="M 35.390625 -104.40625 L 35.390625 -83.8125 L 49.71875 -83.8125 L 49.71875 -67.390625 L 35.390625 -67.390625 L 35.390625 -25.5625 C 35.390625 -22.457031 35.984375 -20.234375 37.171875 -18.890625 C 38.359375 -17.554688 40.632812 -16.890625 44 -16.890625 C 46.476562 -16.890625 48.671875 -17.066406 50.578125 -17.421875 L 50.578125 -0.46875 C 46.191406 0.875 41.671875 1.546875 37.015625 1.546875 C 21.328125 1.546875 13.328125 -6.378906 13.015625 -22.234375 L 13.015625 -67.390625 L 0.78125 -67.390625 L 0.78125 -83.8125 L 13.015625 -83.8125 L 13.015625 -104.40625 Z M 35.390625 -104.40625 "/></g></g></g><g fill="#ffffff" fill-opacity="1"><g transform="translate(238.123873, 147.743887)"><g><path d="M 58.78125 -8.515625 C 53.257812 -1.804688 45.617188 1.546875 35.859375 1.546875 C 26.878906 1.546875 20.023438 -1.03125 15.296875 -6.1875 C 10.566406 -11.351562 8.15625 -18.921875 8.0625 -28.890625 L 8.0625 -83.8125 L 30.4375 -83.8125 L 30.4375 -29.671875 C 30.4375 -20.941406 34.410156 -16.578125 42.359375 -16.578125 C 49.953125 -16.578125 55.171875 -19.207031 58.015625 -24.46875 L 58.015625 -83.8125 L 80.46875 -83.8125 L 80.46875 0 L 59.40625 0 Z M 58.78125 -8.515625 "/></g></g></g><g fill="#ffffff" fill-opacity="1"><g transform="translate(322.43474, 147.743887)"><g><path d="M 55.6875 -62.8125 C 52.644531 -63.226562 49.960938 -63.4375 47.640625 -63.4375 C 39.171875 -63.4375 33.617188 -60.570312 30.984375 -54.84375 L 30.984375 0 L 8.59375 0 L 8.59375 -83.8125 L 29.75 -83.8125 L 30.359375 -73.8125 C 34.847656 -81.507812 41.070312 -85.359375 49.03125 -85.359375 C 51.507812 -85.359375 53.832031 -85.019531 56 -84.34375 Z M 55.6875 -62.8125 "/></g></g></g><g fill="#ffffff" fill-opacity="1"><g transform="translate(375.844905, 147.743887)"><g><path d="M 47.171875 1.546875 C 34.878906 1.546875 24.875 -2.21875 17.15625 -9.75 C 9.4375 -17.289062 5.578125 -27.335938 5.578125 -39.890625 L 5.578125 -42.0625 C 5.578125 -50.476562 7.203125 -58.003906 10.453125 -64.640625 C 13.703125 -71.273438 18.3125 -76.382812 24.28125 -79.96875 C 30.25 -83.5625 37.050781 -85.359375 44.6875 -85.359375 C 56.15625 -85.359375 65.179688 -81.742188 71.765625 -74.515625 C 78.347656 -67.285156 81.640625 -57.035156 81.640625 -43.765625 L 81.640625 -34.625 L 28.265625 -34.625 C 28.992188 -29.144531 31.175781 -24.753906 34.8125 -21.453125 C 38.457031 -18.148438 43.066406 -16.5 48.640625 -16.5 C 57.265625 -16.5 64.003906 -19.625 68.859375 -25.875 L 79.859375 -13.546875 C 76.492188 -8.796875 71.945312 -5.09375 66.21875 -2.4375 C 60.488281 0.21875 54.140625 1.546875 47.171875 1.546875 Z M 44.609375 -67.234375 C 40.171875 -67.234375 36.570312 -65.734375 33.8125 -62.734375 C 31.050781 -59.742188 29.28125 -55.457031 28.5 -49.875 L 59.640625 -49.875 L 59.640625 -51.65625 C 59.535156 -56.613281 58.191406 -60.445312 55.609375 -63.15625 C 53.023438 -65.875 49.359375 -67.234375 44.609375 -67.234375 Z M 44.609375 -67.234375 "/></g></g></g><g fill="#ffffff" fill-opacity="1"><g transform="translate(457.135397, 147.743887)"><g/></g></g><g fill="#ffffff" fill-opacity="1"><g transform="translate(492.190996, 147.743887)"><g><path d="M 99.296875 -14.25 C 95.109375 -9.238281 89.191406 -5.351562 81.546875 -2.59375 C 73.910156 0.164062 65.445312 1.546875 56.15625 1.546875 C 46.394531 1.546875 37.832031 -0.582031 30.46875 -4.84375 C 23.113281 -9.101562 17.4375 -15.285156 13.4375 -23.390625 C 9.4375 -31.492188 7.382812 -41.019531 7.28125 -51.96875 L 7.28125 -59.640625 C 7.28125 -70.898438 9.175781 -80.644531 12.96875 -88.875 C 16.769531 -97.113281 22.242188 -103.414062 29.390625 -107.78125 C 36.546875 -112.144531 44.925781 -114.328125 54.53125 -114.328125 C 67.90625 -114.328125 78.359375 -111.132812 85.890625 -104.75 C 93.429688 -98.375 97.898438 -89.09375 99.296875 -76.90625 L 76.671875 -76.90625 C 75.640625 -83.363281 73.351562 -88.085938 69.8125 -91.078125 C 66.28125 -94.078125 61.414062 -95.578125 55.21875 -95.578125 C 47.320312 -95.578125 41.304688 -92.609375 37.171875 -86.671875 C 33.046875 -80.734375 30.957031 -71.90625 30.90625 -60.1875 L 30.90625 -52.984375 C 30.90625 -41.148438 33.148438 -32.210938 37.640625 -26.171875 C 42.128906 -20.140625 48.710938 -17.125 57.390625 -17.125 C 66.117188 -17.125 72.34375 -18.976562 76.0625 -22.6875 L 76.0625 -42.140625 L 54.921875 -42.140625 L 54.921875 -59.25 L 99.296875 -59.25 Z M 99.296875 -14.25 "/></g></g></g><g fill="#ffffff" fill-opacity="1"><g transform="translate(595.78575, 147.743887)"><g><path d="M 58.78125 -8.515625 C 53.257812 -1.804688 45.617188 1.546875 35.859375 1.546875 C 26.878906 1.546875 20.023438 -1.03125 15.296875 -6.1875 C 10.566406 -11.351562 8.15625 -18.921875 8.0625 -28.890625 L 8.0625 -83.8125 L 30.4375 -83.8125 L 30.4375 -29.671875 C 30.4375 -20.941406 34.410156 -16.578125 42.359375 -16.578125 C 49.953125 -16.578125 55.171875 -19.207031 58.015625 -24.46875 L 58.015625 -83.8125 L 80.46875 -83.8125 L 80.46875 0 L 59.40625 0 Z M 58.78125 -8.515625 "/></g></g></g><g fill="#ffffff" fill-opacity="1"><g transform="translate(680.096617, 147.743887)"><g><path d="M 57.15625 0 C 56.125 -2.007812 55.378906 -4.515625 54.921875 -7.515625 C 49.492188 -1.472656 42.441406 1.546875 33.765625 1.546875 C 25.554688 1.546875 18.753906 -0.828125 13.359375 -5.578125 C 7.960938 -10.328125 5.265625 -16.316406 5.265625 -23.546875 C 5.265625 -32.429688 8.554688 -39.25 15.140625 -44 C 21.722656 -48.75 31.238281 -51.148438 43.6875 -51.203125 L 53.984375 -51.203125 L 53.984375 -56 C 53.984375 -59.875 52.988281 -62.972656 51 -65.296875 C 49.007812 -67.617188 45.875 -68.78125 41.59375 -68.78125 C 37.820312 -68.78125 34.863281 -67.875 32.71875 -66.0625 C 30.582031 -64.257812 29.515625 -61.78125 29.515625 -58.625 L 7.125 -58.625 C 7.125 -63.476562 8.617188 -67.972656 11.609375 -72.109375 C 14.609375 -76.242188 18.84375 -79.484375 24.3125 -81.828125 C 29.789062 -84.179688 35.9375 -85.359375 42.75 -85.359375 C 53.082031 -85.359375 61.28125 -82.757812 67.34375 -77.5625 C 73.414062 -72.375 76.453125 -65.082031 76.453125 -55.6875 L 76.453125 -19.359375 C 76.503906 -11.410156 77.613281 -5.394531 79.78125 -1.3125 L 79.78125 0 Z M 38.65625 -15.5625 C 41.957031 -15.5625 45 -16.296875 47.78125 -17.765625 C 50.570312 -19.242188 52.640625 -21.222656 53.984375 -23.703125 L 53.984375 -38.109375 L 45.625 -38.109375 C 34.414062 -38.109375 28.453125 -34.234375 27.734375 -26.484375 L 27.65625 -25.171875 C 27.65625 -22.378906 28.632812 -20.078125 30.59375 -18.265625 C 32.550781 -16.460938 35.238281 -15.5625 38.65625 -15.5625 Z M 38.65625 -15.5625 "/></g></g></g><g fill="#ffffff" fill-opacity="1"><g transform="translate(760.690106, 147.743887)"><g><path d="M 55.6875 -62.8125 C 52.644531 -63.226562 49.960938 -63.4375 47.640625 -63.4375 C 39.171875 -63.4375 33.617188 -60.570312 30.984375 -54.84375 L 30.984375 0 L 8.59375 0 L 8.59375 -83.8125 L 29.75 -83.8125 L 30.359375 -73.8125 C 34.847656 -81.507812 41.070312 -85.359375 49.03125 -85.359375 C 51.507812 -85.359375 53.832031 -85.019531 56 -84.34375 Z M 55.6875 -62.8125 "/></g></g></g><g fill="#ffffff" fill-opacity="1"><g transform="translate(814.100271, 147.743887)"><g><path d="M 5.109375 -42.515625 C 5.109375 -55.585938 8.035156 -65.992188 13.890625 -73.734375 C 19.753906 -81.484375 27.773438 -85.359375 37.953125 -85.359375 C 46.109375 -85.359375 52.847656 -82.3125 58.171875 -76.21875 L 58.171875 -118.96875 L 80.625 -118.96875 L 80.625 0 L 60.40625 0 L 59.328125 -8.90625 C 53.753906 -1.9375 46.578125 1.546875 37.796875 1.546875 C 27.929688 1.546875 20.015625 -2.335938 14.046875 -10.109375 C 8.085938 -17.878906 5.109375 -28.679688 5.109375 -42.515625 Z M 27.5 -40.890625 C 27.5 -33.046875 28.863281 -27.03125 31.59375 -22.84375 C 34.332031 -18.664062 38.3125 -16.578125 43.53125 -16.578125 C 50.445312 -16.578125 55.328125 -19.492188 58.171875 -25.328125 L 58.171875 -58.40625 C 55.378906 -64.238281 50.550781 -67.15625 43.6875 -67.15625 C 32.894531 -67.15625 27.5 -58.398438 27.5 -40.890625 Z M 27.5 -40.890625 "/></g></g></g><g fill="#ffffff" fill-opacity="1"><g transform="translate(899.030655, 147.743887)"><g><path d="M 32.21875 0 L 9.765625 0 L 9.765625 -83.8125 L 32.21875 -83.8125 Z M 8.4375 -105.484375 C 8.4375 -108.847656 9.5625 -111.613281 11.8125 -113.78125 C 14.0625 -115.945312 17.117188 -117.03125 20.984375 -117.03125 C 24.804688 -117.03125 27.851562 -115.945312 30.125 -113.78125 C 32.394531 -111.613281 33.53125 -108.847656 33.53125 -105.484375 C 33.53125 -102.078125 32.378906 -99.289062 30.078125 -97.125 C 27.785156 -94.957031 24.753906 -93.875 20.984375 -93.875 C 17.210938 -93.875 14.175781 -94.957031 11.875 -97.125 C 9.582031 -99.289062 8.4375 -102.078125 8.4375 -105.484375 Z M 8.4375 -105.484375 "/></g></g></g><g fill="#ffffff" fill-opacity="1"><g transform="translate(936.641944, 147.743887)"><g><path d="M 57.15625 0 C 56.125 -2.007812 55.378906 -4.515625 54.921875 -7.515625 C 49.492188 -1.472656 42.441406 1.546875 33.765625 1.546875 C 25.554688 1.546875 18.753906 -0.828125 13.359375 -5.578125 C 7.960938 -10.328125 5.265625 -16.316406 5.265625 -23.546875 C 5.265625 -32.429688 8.554688 -39.25 15.140625 -44 C 21.722656 -48.75 31.238281 -51.148438 43.6875 -51.203125 L 53.984375 -51.203125 L 53.984375 -56 C 53.984375 -59.875 52.988281 -62.972656 51 -65.296875 C 49.007812 -67.617188 45.875 -68.78125 41.59375 -68.78125 C 37.820312 -68.78125 34.863281 -67.875 32.71875 -66.0625 C 30.582031 -64.257812 29.515625 -61.78125 29.515625 -58.625 L 7.125 -58.625 C 7.125 -63.476562 8.617188 -67.972656 11.609375 -72.109375 C 14.609375 -76.242188 18.84375 -79.484375 24.3125 -81.828125 C 29.789062 -84.179688 35.9375 -85.359375 42.75 -85.359375 C 53.082031 -85.359375 61.28125 -82.757812 67.34375 -77.5625 C 73.414062 -72.375 76.453125 -65.082031 76.453125 -55.6875 L 76.453125 -19.359375 C 76.503906 -11.410156 77.613281 -5.394531 79.78125 -1.3125 L 79.78125 0 Z M 38.65625 -15.5625 C 41.957031 -15.5625 45 -16.296875 47.78125 -17.765625 C 50.570312 -19.242188 52.640625 -21.222656 53.984375 -23.703125 L 53.984375 -38.109375 L 45.625 -38.109375 C 34.414062 -38.109375 28.453125 -34.234375 27.734375 -26.484375 L 27.65625 -25.171875 C 27.65625 -22.378906 28.632812 -20.078125 30.59375 -18.265625 C 32.550781 -16.460938 35.238281 -15.5625 38.65625 -15.5625 Z M 38.65625 -15.5625 "/></g></g></g><g fill="#ffffff" fill-opacity="1"><g transform="translate(1017.235434, 147.743887)"><g><path d="M 29.203125 -83.8125 L 29.890625 -74.125 C 35.878906 -81.613281 43.910156 -85.359375 53.984375 -85.359375 C 62.867188 -85.359375 69.476562 -82.75 73.8125 -77.53125 C 78.144531 -72.3125 80.363281 -64.515625 80.46875 -54.140625 L 80.46875 0 L 58.09375 0 L 58.09375 -53.59375 C 58.09375 -58.34375 57.054688 -61.789062 54.984375 -63.9375 C 52.921875 -66.082031 49.488281 -67.15625 44.6875 -67.15625 C 38.382812 -67.15625 33.660156 -64.46875 30.515625 -59.09375 L 30.515625 0 L 8.125 0 L 8.125 -83.8125 Z M 29.203125 -83.8125 "/></g></g></g><g fill="#ffffff" fill-opacity="1"><g transform="translate(1101.62374, 147.743887)"><g><path d="M 53.984375 -23.15625 C 53.984375 -25.894531 52.628906 -28.050781 49.921875 -29.625 C 47.210938 -31.195312 42.863281 -32.601562 36.875 -33.84375 C 16.9375 -38.03125 6.96875 -46.5 6.96875 -59.25 C 6.96875 -66.6875 10.050781 -72.894531 16.21875 -77.875 C 22.394531 -82.863281 30.46875 -85.359375 40.4375 -85.359375 C 51.070312 -85.359375 59.578125 -82.851562 65.953125 -77.84375 C 72.328125 -72.832031 75.515625 -66.328125 75.515625 -58.328125 L 53.140625 -58.328125 C 53.140625 -61.523438 52.101562 -64.171875 50.03125 -66.265625 C 47.96875 -68.359375 44.742188 -69.40625 40.359375 -69.40625 C 36.585938 -69.40625 33.664062 -68.550781 31.59375 -66.84375 C 29.53125 -65.132812 28.5 -62.96875 28.5 -60.34375 C 28.5 -57.863281 29.671875 -55.859375 32.015625 -54.328125 C 34.367188 -52.804688 38.332031 -51.488281 43.90625 -50.375 C 49.488281 -49.269531 54.191406 -48.019531 58.015625 -46.625 C 69.835938 -42.289062 75.75 -34.78125 75.75 -24.09375 C 75.75 -16.445312 72.46875 -10.257812 65.90625 -5.53125 C 59.351562 -0.8125 50.890625 1.546875 40.515625 1.546875 C 33.484375 1.546875 27.242188 0.296875 21.796875 -2.203125 C 16.347656 -4.710938 12.078125 -8.144531 8.984375 -12.5 C 5.890625 -16.863281 4.34375 -21.578125 4.34375 -26.640625 L 25.5625 -26.640625 C 25.769531 -22.671875 27.238281 -19.625 29.96875 -17.5 C 32.707031 -15.382812 36.375 -14.328125 40.96875 -14.328125 C 45.257812 -14.328125 48.5 -15.140625 50.6875 -16.765625 C 52.882812 -18.390625 53.984375 -20.519531 53.984375 -23.15625 Z M 53.984375 -23.15625 "/></g></g></g></g></g></g><g transform="matrix(1, 0, 0, 1, 271, 165)"><g clip-path="url(#e89932f581)"><g fill="#ebf0f9" fill-opacity="1"><g transform="translate(0.806717, 69.718909)"><g><path d="M 46.6875 -24.65625 C 46.6875 -19.488281 45.816406 -14.976562 44.078125 -11.125 C 42.335938 -7.28125 39.875 -4.34375 36.6875 -2.3125 C 33.5 -0.289062 29.78125 0.71875 25.53125 0.71875 C 21.375 0.71875 17.691406 -0.296875 14.484375 -2.328125 C 11.273438 -4.367188 8.78125 -7.28125 7 -11.0625 C 5.226562 -14.84375 4.320312 -19.21875 4.28125 -24.1875 L 4.28125 -28 C 4.28125 -33.0625 5.160156 -37.535156 6.921875 -41.421875 C 8.679688 -45.316406 11.171875 -48.296875 14.390625 -50.359375 C 17.617188 -52.421875 21.304688 -53.453125 25.453125 -53.453125 C 29.679688 -53.453125 33.40625 -52.429688 36.625 -50.390625 C 39.851562 -48.347656 42.335938 -45.390625 44.078125 -41.515625 C 45.816406 -37.640625 46.6875 -33.132812 46.6875 -28 Z M 39.765625 -28.0625 C 39.765625 -34.320312 38.507812 -39.125 36 -42.46875 C 33.488281 -45.8125 29.972656 -47.484375 25.453125 -47.484375 C 21.066406 -47.484375 17.609375 -45.8125 15.078125 -42.46875 C 12.554688 -39.125 11.257812 -34.476562 11.1875 -28.53125 L 11.1875 -24.65625 C 11.1875 -18.601562 12.457031 -13.84375 15 -10.375 C 17.550781 -6.90625 21.0625 -5.171875 25.53125 -5.171875 C 30.019531 -5.171875 33.492188 -6.804688 35.953125 -10.078125 C 38.421875 -13.359375 39.691406 -18.050781 39.765625 -24.15625 Z M 39.765625 -28.0625 "/></g></g></g><g fill="#ebf0f9" fill-opacity="1"><g transform="translate(56.322857, 69.718909)"><g><path d="M 25.453125 -21.328125 L 13.078125 -21.328125 L 13.078125 0 L 6.078125 0 L 6.078125 -52.734375 L 23.546875 -52.734375 C 29.484375 -52.734375 34.050781 -51.378906 37.25 -48.671875 C 40.445312 -45.972656 42.046875 -42.039062 42.046875 -36.875 C 42.046875 -33.582031 41.15625 -30.71875 39.375 -28.28125 C 37.601562 -25.84375 35.140625 -24.019531 31.984375 -22.8125 L 44.359375 -0.4375 L 44.359375 0 L 36.90625 0 Z M 13.078125 -27.015625 L 23.765625 -27.015625 C 27.210938 -27.015625 29.957031 -27.90625 32 -29.6875 C 34.039062 -31.476562 35.0625 -33.875 35.0625 -36.875 C 35.0625 -40.132812 34.085938 -42.628906 32.140625 -44.359375 C 30.203125 -46.097656 27.394531 -46.984375 23.71875 -47.015625 L 13.078125 -47.015625 Z M 13.078125 -27.015625 "/></g></g></g><g fill="#ebf0f9" fill-opacity="1"><g transform="translate(106.515344, 69.718909)"><g><path d="M 45.046875 -6.921875 C 43.265625 -4.359375 40.773438 -2.441406 37.578125 -1.171875 C 34.378906 0.0859375 30.65625 0.71875 26.40625 0.71875 C 22.101562 0.71875 18.285156 -0.285156 14.953125 -2.296875 C 11.617188 -4.316406 9.039062 -7.1875 7.21875 -10.90625 C 5.394531 -14.625 4.460938 -18.929688 4.421875 -23.828125 L 4.421875 -28.4375 C 4.421875 -36.375 6.269531 -42.523438 9.96875 -46.890625 C 13.675781 -51.265625 18.890625 -53.453125 25.609375 -53.453125 C 31.109375 -53.453125 35.535156 -52.046875 38.890625 -49.234375 C 42.253906 -46.421875 44.304688 -42.429688 45.046875 -37.265625 L 38.09375 -37.265625 C 36.789062 -44.242188 32.640625 -47.734375 25.640625 -47.734375 C 20.984375 -47.734375 17.453125 -46.097656 15.046875 -42.828125 C 12.640625 -39.554688 11.425781 -34.816406 11.40625 -28.609375 L 11.40625 -24.296875 C 11.40625 -18.378906 12.753906 -13.675781 15.453125 -10.1875 C 18.160156 -6.707031 21.820312 -4.96875 26.4375 -4.96875 C 29.039062 -4.96875 31.320312 -5.253906 33.28125 -5.828125 C 35.238281 -6.410156 36.859375 -7.390625 38.140625 -8.765625 L 38.140625 -20.609375 L 25.9375 -20.609375 L 25.9375 -26.25 L 45.046875 -26.25 Z M 45.046875 -6.921875 "/></g></g></g><g fill="#ebf0f9" fill-opacity="1"><g transform="translate(161.560686, 69.718909)"><g><path d="M 35.234375 -13.765625 L 13.140625 -13.765625 L 8.1875 0 L 1.015625 0 L 21.15625 -52.734375 L 27.234375 -52.734375 L 47.40625 0 L 40.265625 0 Z M 15.25 -19.484375 L 33.171875 -19.484375 L 24.1875 -44.140625 Z M 15.25 -19.484375 "/></g></g></g><g fill="#ebf0f9" fill-opacity="1"><g transform="translate(214.469323, 69.718909)"><g><path d="M 46.640625 0 L 39.65625 0 L 13.109375 -40.640625 L 13.109375 0 L 6.125 0 L 6.125 -52.734375 L 13.109375 -52.734375 L 39.734375 -11.921875 L 39.734375 -52.734375 L 46.640625 -52.734375 Z M 46.640625 0 "/></g></g></g><g fill="#ebf0f9" fill-opacity="1"><g transform="translate(271.868648, 69.718909)"><g><path d="M 13.578125 0 L 6.625 0 L 6.625 -52.734375 L 13.578125 -52.734375 Z M 13.578125 0 "/></g></g></g><g fill="#ebf0f9" fill-opacity="1"><g transform="translate(296.565568, 69.718909)"><g><path d="M 11.328125 -5.6875 L 41.5 -5.6875 L 41.5 0 L 3.109375 0 L 3.109375 -5.21875 L 32.015625 -47.015625 L 3.578125 -47.015625 L 3.578125 -52.734375 L 40.34375 -52.734375 L 40.34375 -47.625 Z M 11.328125 -5.6875 "/></g></g></g><g fill="#ebf0f9" fill-opacity="1"><g transform="translate(345.490507, 69.718909)"><g><path d="M 35.234375 -13.765625 L 13.140625 -13.765625 L 8.1875 0 L 1.015625 0 L 21.15625 -52.734375 L 27.234375 -52.734375 L 47.40625 0 L 40.265625 0 Z M 15.25 -19.484375 L 33.171875 -19.484375 L 24.1875 -44.140625 Z M 15.25 -19.484375 "/></g></g></g><g fill="#ebf0f9" fill-opacity="1"><g transform="translate(398.399155, 69.718909)"><g><path d="M 42.546875 -47.015625 L 25.609375 -47.015625 L 25.609375 0 L 18.6875 0 L 18.6875 -47.015625 L 1.78125 -47.015625 L 1.78125 -52.734375 L 42.546875 -52.734375 Z M 42.546875 -47.015625 "/></g></g></g><g fill="#ebf0f9" fill-opacity="1"><g transform="translate(447.179257, 69.718909)"><g><path d="M 13.578125 0 L 6.625 0 L 6.625 -52.734375 L 13.578125 -52.734375 Z M 13.578125 0 "/></g></g></g><g fill="#ebf0f9" fill-opacity="1"><g transform="translate(471.87613, 69.718909)"><g><path d="M 46.6875 -24.65625 C 46.6875 -19.488281 45.816406 -14.976562 44.078125 -11.125 C 42.335938 -7.28125 39.875 -4.34375 36.6875 -2.3125 C 33.5 -0.289062 29.78125 0.71875 25.53125 0.71875 C 21.375 0.71875 17.691406 -0.296875 14.484375 -2.328125 C 11.273438 -4.367188 8.78125 -7.28125 7 -11.0625 C 5.226562 -14.84375 4.320312 -19.21875 4.28125 -24.1875 L 4.28125 -28 C 4.28125 -33.0625 5.160156 -37.535156 6.921875 -41.421875 C 8.679688 -45.316406 11.171875 -48.296875 14.390625 -50.359375 C 17.617188 -52.421875 21.304688 -53.453125 25.453125 -53.453125 C 29.679688 -53.453125 33.40625 -52.429688 36.625 -50.390625 C 39.851562 -48.347656 42.335938 -45.390625 44.078125 -41.515625 C 45.816406 -37.640625 46.6875 -33.132812 46.6875 -28 Z M 39.765625 -28.0625 C 39.765625 -34.320312 38.507812 -39.125 36 -42.46875 C 33.488281 -45.8125 29.972656 -47.484375 25.453125 -47.484375 C 21.066406 -47.484375 17.609375 -45.8125 15.078125 -42.46875 C 12.554688 -39.125 11.257812 -34.476562 11.1875 -28.53125 L 11.1875 -24.65625 C 11.1875 -18.601562 12.457031 -13.84375 15 -10.375 C 17.550781 -6.90625 21.0625 -5.171875 25.53125 -5.171875 C 30.019531 -5.171875 33.492188 -6.804688 35.953125 -10.078125 C 38.421875 -13.359375 39.691406 -18.050781 39.765625 -24.15625 Z M 39.765625 -28.0625 "/></g></g></g><g fill="#ebf0f9" fill-opacity="1"><g transform="translate(527.392258, 69.718909)"><g><path d="M 46.640625 0 L 39.65625 0 L 13.109375 -40.640625 L 13.109375 0 L 6.125 0 L 6.125 -52.734375 L 13.109375 -52.734375 L 39.734375 -11.921875 L 39.734375 -52.734375 L 46.640625 -52.734375 Z M 46.640625 0 "/></g></g></g></g></g><path fill="#80cc28" d="M 141.375 198.28125 C 141.375 198.28125 155.304688 147.300781 192.929688 132.800781 C 192.929688 132.800781 143.851562 157.167969 146.527344 230.839844 C 146.527344 230.839844 150.253906 206.195312 156.976562 196.363281 C 244.957031 180.808594 226.414062 95.785156 226.414062 95.785156 C 130.980469 118.191406 141.375 198.28125 141.375 198.28125 " fill-opacity="1" fill-rule="nonzero"/><g clip-path="url(#de213129fa)"><path fill="#5aab34" d="M 135.199219 187.53125 C 135.199219 187.53125 100.777344 133.941406 52.269531 130.910156 C 52.269531 130.910156 145.683594 145.550781 149.226562 286.636719 C 149.300781 289.570312 146.9375 291.984375 144.011719 291.984375 C 141.058594 291.984375 138.699219 289.53125 138.800781 286.574219 C 139.34375 271.214844 138.769531 226.191406 116.558594 190.980469 C 9.742188 205.007812 0.390625 100.476562 0.390625 100.476562 C 118.257812 91.632812 135.199219 187.53125 135.199219 187.53125 " fill-opacity="1" fill-rule="nonzero"/></g><path fill="#5aab34" d="M 71.019531 196.429688 C 60.839844 194.066406 52.015625 190.390625 44.382812 185.894531 C 65 213.804688 98.078125 231.894531 135.375 231.894531 C 135.652344 231.894531 135.929688 231.890625 136.203125 231.886719 C 135.203125 227.765625 133.71875 223.640625 131.605469 219.582031 C 108.617188 218.734375 87.589844 210.191406 71.019531 196.429688 " fill-opacity="1" fill-rule="nonzero"/><g clip-path="url(#61782d66d6)"><path fill="#80cc28" d="M 135.375 4.921875 C 81.546875 4.921875 36.5 42.601562 25.027344 93.089844 C 29.277344 93.316406 33.367188 93.695312 37.316406 94.195312 C 48.136719 49.96875 87.929688 17.15625 135.375 17.15625 C 191.140625 17.15625 236.347656 62.488281 236.347656 118.410156 C 236.347656 167.078125 202.101562 207.71875 156.460938 217.441406 C 155.292969 222.0625 154.347656 226.707031 153.738281 230.402344 C 207.511719 221.605469 248.550781 174.816406 248.550781 118.410156 C 248.550781 55.730469 197.878906 4.921875 135.375 4.921875 " fill-opacity="1" fill-rule="nonzero"/></g><path fill="#80cc28" d="M 149.226562 137.058594 C 149.226562 144.867188 142.914062 151.199219 135.125 151.199219 C 127.335938 151.199219 121.019531 144.867188 121.019531 137.058594 C 121.019531 129.246094 127.335938 122.914062 135.125 122.914062 C 142.914062 122.914062 149.226562 129.246094 149.226562 137.058594 " fill-opacity="1" fill-rule="nonzero"/></g></g></svg>