<svg xmlns="http://www.w3.org/2000/svg" version="1.1" xmlns:xlink="http://www.w3.org/1999/xlink" width="1000" height="1000"><g clip-path="url(#SvgjsClipPath1173)"><rect width="1000" height="1000" fill="#ffffff"></rect><g transform="matrix(0.4,0,0,0.4,100,100)"><svg xmlns="http://www.w3.org/2000/svg" version="1" xmlns:xlink="http://www.w3.org/1999/xlink" width="2000" zoomAndPan="magnify" viewBox="0 0 1500 1499.999933" height="2000" preserveAspectRatio="xMidYMid meet"><defs><clipPath id="a34bc3132b"><path d="M 45.386719 590 L 866 590 L 866 1438.855469 L 45.386719 1438.855469 Z M 45.386719 590 " clip-rule="nonzero"></path></clipPath><clipPath id="b3a3b0b62c"><path d="M 181 68.605469 L 1413 68.605469 L 1413 1308 L 181 1308 Z M 181 68.605469 " clip-rule="nonzero"></path></clipPath><clipPath id="SvgjsClipPath1173"><rect width="1000" height="1000" x="0" y="0" rx="350" ry="350"></rect></clipPath></defs><rect x="-150" width="1800" fill="#ffffff" y="-149.999993" height="1799.99992" fill-opacity="1"></rect><rect x="-150" width="1800" fill="#ffffff" y="-149.999993" height="1799.99992" fill-opacity="1"></rect><path fill="#80cc28" d="M 822.488281 1130.773438 C 822.488281 1130.773438 899.234375 850.679688 1106.476562 771 C 1106.476562 771 836.140625 904.886719 850.878906 1309.660156 C 850.878906 1309.660156 871.417969 1174.261719 908.4375 1120.234375 C 1393.0625 1034.769531 1290.9375 567.617188 1290.9375 567.617188 C 765.234375 690.734375 822.488281 1130.773438 822.488281 1130.773438 " fill-opacity="1" fill-rule="nonzero"></path><g clip-path="url(#a34bc3132b)"><path fill="#5aab34" d="M 788.476562 1071.707031 C 788.476562 1071.707031 598.875 777.269531 331.671875 760.625 C 331.671875 760.625 846.230469 841.050781 865.757812 1616.222656 C 866.167969 1632.347656 853.136719 1645.613281 837.03125 1645.613281 C 820.761719 1645.613281 807.753906 1632.136719 808.320312 1615.882812 C 811.3125 1531.503906 808.144531 1284.113281 685.800781 1090.664062 C 97.410156 1167.726562 45.902344 593.414062 45.902344 593.414062 C 695.160156 544.8125 788.476562 1071.707031 788.476562 1071.707031 " fill-opacity="1" fill-rule="nonzero"></path></g><path fill="#5aab34" d="M 434.953125 1120.605469 C 378.871094 1107.613281 330.265625 1087.425781 288.226562 1062.714844 C 401.796875 1216.058594 584.011719 1315.464844 789.457031 1315.464844 C 790.96875 1315.464844 792.5 1315.425781 794.011719 1315.410156 C 788.511719 1292.765625 780.324219 1270.105469 768.6875 1247.816406 C 642.050781 1243.152344 526.222656 1196.210938 434.953125 1120.605469 " fill-opacity="1" fill-rule="nonzero"></path><g clip-path="url(#b3a3b0b62c)"><path fill="#80cc28" d="M 789.457031 68.390625 C 492.9375 68.390625 244.816406 275.421875 181.613281 552.824219 C 205.019531 554.054688 227.550781 556.136719 249.300781 558.894531 C 308.90625 315.902344 528.109375 135.609375 789.457031 135.609375 C 1096.632812 135.609375 1345.648438 384.6875 1345.648438 691.925781 C 1345.648438 959.324219 1157.003906 1182.628906 905.589844 1236.050781 C 899.164062 1261.433594 893.96875 1286.964844 890.601562 1307.257812 C 1186.800781 1258.925781 1412.871094 1001.851562 1412.871094 691.925781 C 1412.871094 347.554688 1133.742188 68.390625 789.457031 68.390625 " fill-opacity="1" fill-rule="nonzero"></path></g><path fill="#80cc28" d="M 865.757812 794.394531 C 865.757812 837.292969 830.980469 872.097656 788.066406 872.097656 C 745.175781 872.097656 710.378906 837.292969 710.378906 794.394531 C 710.378906 751.472656 745.175781 716.6875 788.066406 716.6875 C 830.980469 716.6875 865.757812 751.472656 865.757812 794.394531 " fill-opacity="1" fill-rule="nonzero"></path></svg></g></g></svg>